<svg width="239" height="46" viewBox="0 0 239 46" fill="none" xmlns="http://www.w3.org/2000/svg">
<path d="M163.828 11.8467H167.252V13.173H168.108V10.9574H167.432V6.1042H164.143C164.189 6.21501 164.219 6.33168 164.233 6.45086C164.249 6.58603 164.249 6.72264 164.233 6.85781C164.233 6.99346 164.233 7.21953 164.233 7.52098C164.233 7.82242 164.143 8.154 164.068 8.54588C163.993 8.93775 163.903 9.32963 163.798 9.75164C163.7 10.1616 163.574 10.5644 163.422 10.9574H162.927V13.173H163.783L163.828 11.8467ZM164.654 10.0229C164.654 9.67628 164.819 9.32963 164.879 8.98297C164.939 8.63631 165.014 8.28965 165.059 7.94299C165.104 7.59633 165.149 7.27982 165.179 6.99346H166.396V10.9574H164.428C164.428 10.671 164.564 10.3545 164.654 10.0229Z" fill="black"/>
<path d="M170.436 11.922C170.821 11.9373 171.2 11.8262 171.517 11.6055C171.817 11.3749 172.033 11.0519 172.133 10.6861L171.261 10.5203C171.202 10.6819 171.098 10.8231 170.961 10.9273C170.809 11.0402 170.624 11.0986 170.436 11.0931C169.895 11.0931 169.61 10.7464 169.564 10.0681H172.223V9.58584C172.224 9.29516 172.184 9.00579 172.102 8.72673C172.019 8.49684 171.897 8.28281 171.742 8.09371C171.586 7.92519 171.397 7.79164 171.186 7.70183C170.947 7.60933 170.692 7.5633 170.436 7.56618C170.172 7.55917 169.911 7.61065 169.67 7.71691C169.449 7.80986 169.253 7.95456 169.099 8.13892C168.941 8.33133 168.819 8.55091 168.739 8.78702C168.658 9.0558 168.617 9.3352 168.618 9.61599V9.9325C168.574 10.4788 168.747 11.0205 169.099 11.4397C169.276 11.609 169.486 11.7394 169.717 11.8224C169.947 11.9055 170.192 11.9394 170.436 11.922ZM170.436 8.39515C170.946 8.39515 171.231 8.71166 171.277 9.34469H169.58C169.66 8.71166 169.945 8.39515 170.436 8.39515Z" fill="black"/>
<path d="M176.773 9.76671V9.49542C176.804 8.99042 176.661 8.49007 176.367 8.07864C176.227 7.90584 176.047 7.76921 175.844 7.68008C175.64 7.59095 175.418 7.5519 175.196 7.56619C174.973 7.5628 174.753 7.60914 174.55 7.70183C174.361 7.79815 174.196 7.93749 174.07 8.10878C174.041 8.01593 174.006 7.92526 173.965 7.83748C173.923 7.76598 173.873 7.70013 173.814 7.64155H173.019C173.071 7.76592 173.102 7.89853 173.109 8.03342C173.124 8.20893 173.124 8.38544 173.109 8.56094V12.8565C173.115 12.977 173.115 13.0977 173.109 13.2182C173.092 13.329 173.056 13.436 173.004 13.5347H173.905C173.977 13.459 174.029 13.3655 174.055 13.2634C174.069 13.1534 174.069 13.0419 174.055 12.9318V11.8617H174.941C175.203 11.8599 175.463 11.8088 175.707 11.711C175.935 11.6151 176.14 11.4712 176.307 11.289C176.481 11.0965 176.613 10.871 176.698 10.6258C176.771 10.3458 176.796 10.0553 176.773 9.76671ZM175.812 9.85714C175.838 10.1679 175.753 10.4779 175.572 10.7313C175.487 10.8311 175.381 10.9102 175.261 10.9624C175.141 11.0147 175.011 11.0387 174.881 11.0328H174.1V9.72149C174.081 9.37712 174.154 9.03397 174.31 8.72674C174.376 8.61681 174.472 8.52759 174.586 8.46904C174.7 8.41048 174.828 8.3849 174.956 8.39515C175.083 8.38225 175.211 8.40336 175.327 8.45631C175.443 8.50927 175.543 8.59218 175.617 8.69659C175.767 8.96741 175.835 9.27663 175.812 9.58584V9.85714Z" fill="black"/>
<path d="M178.275 11.8467L179.221 10.3394C179.356 10.3559 179.492 10.3559 179.626 10.3394V11.8467H180.587V10.3394C180.727 10.3559 180.868 10.3559 181.008 10.3394L181.714 11.4849L181.879 11.7261C181.945 11.7994 182.027 11.8562 182.119 11.8919H183.216L182.945 11.6507L182.735 11.3794L181.699 9.87222C181.768 9.78041 181.824 9.67884 181.864 9.57078L181.999 9.25426L182.089 8.99803C182.12 8.9229 182.161 8.852 182.209 8.78703C182.248 8.72617 182.299 8.67468 182.36 8.63631C182.428 8.61702 182.501 8.61702 182.57 8.63631H182.69H182.825V7.67169H182.585C182.399 7.66077 182.213 7.69706 182.044 7.7772C181.912 7.83624 181.794 7.9237 181.699 8.03342C181.614 8.14511 181.544 8.26656 181.489 8.39515L181.353 8.8021C181.353 8.92267 181.278 9.02818 181.248 9.13368C181.204 9.22722 181.154 9.31784 181.098 9.40498C181.049 9.48023 180.982 9.54229 180.903 9.58585C180.804 9.63363 180.697 9.6642 180.587 9.67628V6.2097H179.626V9.67628C179.522 9.6643 179.42 9.63367 179.326 9.58585C179.246 9.53835 179.175 9.47714 179.116 9.40498C179.065 9.31767 179.02 9.22703 178.981 9.13368C178.981 9.02818 178.905 8.92267 178.875 8.8021L178.74 8.39515C178.685 8.26656 178.614 8.14511 178.53 8.03342C178.435 7.9237 178.317 7.83624 178.185 7.7772C178.016 7.69706 177.83 7.66077 177.644 7.67169H177.419V8.63631H177.524H177.629C177.703 8.61895 177.78 8.61895 177.854 8.63631L178.004 8.78703C178.004 8.78703 178.079 8.92267 178.125 8.99803L178.215 9.25426L178.35 9.58585C178.395 9.69443 178.456 9.79594 178.53 9.88729L177.163 11.9069L178.275 11.8467Z" fill="black"/>
<path d="M185.618 9.29949C185.45 9.36797 185.273 9.41359 185.093 9.43514C184.884 9.45642 184.678 9.49678 184.477 9.55571C184.297 9.6069 184.125 9.683 183.966 9.78179C183.821 9.88778 183.702 10.0273 183.621 10.1887C183.531 10.3817 183.49 10.5939 183.501 10.8067C183.501 10.9654 183.527 11.1231 183.576 11.2739C183.629 11.4061 183.711 11.5246 183.816 11.6206C183.913 11.7213 184.031 11.7986 184.162 11.8467C184.296 11.8694 184.433 11.8694 184.567 11.8467C184.831 11.8552 185.092 11.8037 185.333 11.696C185.532 11.6005 185.715 11.4733 185.874 11.3191C185.919 11.4904 186.001 11.6497 186.114 11.7864H186.955C186.904 11.6562 186.874 11.5189 186.865 11.3794C186.849 11.204 186.849 11.0274 186.865 10.8519V9.10355C186.868 8.85225 186.827 8.60236 186.745 8.36502C186.676 8.17866 186.568 8.00912 186.429 7.86764C186.289 7.74572 186.125 7.65345 185.949 7.59634C185.739 7.53362 185.522 7.50313 185.303 7.50591C184.933 7.49927 184.57 7.61004 184.267 7.82243C183.952 8.0348 183.719 8.34847 183.606 8.71168L184.477 8.9679C184.524 8.7835 184.629 8.61946 184.777 8.50067C184.915 8.38383 185.093 8.3245 185.273 8.33488C185.437 8.32041 185.602 8.36297 185.739 8.45545C185.791 8.50278 185.833 8.5609 185.862 8.6259C185.89 8.69089 185.905 8.76125 185.904 8.83225V8.90762C185.913 8.99681 185.889 9.0863 185.836 9.15871C185.784 9.23112 185.706 9.28129 185.618 9.29949ZM185.844 10.3244C185.844 10.441 185.813 10.5556 185.754 10.656C185.693 10.7541 185.611 10.8367 185.513 10.8971C185.42 10.9593 185.319 11.0099 185.213 11.0478C185.103 11.0626 184.992 11.0626 184.883 11.0478C184.771 11.0502 184.661 11.0187 184.567 10.9574C184.527 10.9153 184.496 10.8657 184.475 10.8113C184.455 10.757 184.445 10.699 184.447 10.6409C184.419 10.5526 184.419 10.4579 184.447 10.3696C184.487 10.2957 184.55 10.2373 184.627 10.2038C184.717 10.1579 184.813 10.1274 184.913 10.1134H185.243H185.528C185.615 10.1043 185.697 10.0731 185.769 10.0229V10.3997L185.844 10.3244Z" fill="black"/>
<path d="M190.244 11.7261C190.43 11.6564 190.603 11.5544 190.754 11.4246C190.881 11.3083 190.979 11.1638 191.04 11.0026C191.103 10.8599 191.139 10.7065 191.145 10.5505C191.154 10.3023 191.08 10.0583 190.935 9.85714C190.799 9.68634 190.624 9.55173 190.424 9.46527C190.579 9.38773 190.71 9.26752 190.799 9.11861C190.905 8.96911 190.957 8.78893 190.95 8.60616C190.954 8.4676 190.921 8.33042 190.855 8.20862C190.789 8.08682 190.692 7.98477 190.574 7.91285C190.25 7.71375 189.873 7.61907 189.493 7.64155H187.811V11.8467H189.493C189.748 11.8495 190.002 11.8087 190.244 11.7261ZM188.742 8.48558H189.388C189.763 8.48558 189.943 8.62123 189.943 8.86239C189.945 8.98394 189.902 9.10189 189.823 9.19397C189.776 9.24107 189.72 9.27754 189.658 9.30093C189.596 9.32433 189.529 9.33411 189.463 9.32962H188.742V8.48558ZM188.742 9.99279H189.448C189.634 9.97515 189.822 10.0118 189.989 10.0983C190.042 10.141 190.084 10.1966 190.11 10.2598C190.136 10.3231 190.146 10.3919 190.139 10.46C190.146 10.5281 190.136 10.597 190.11 10.6602C190.084 10.7235 190.042 10.779 189.989 10.8218C189.841 10.9154 189.667 10.9578 189.493 10.9423H188.742V9.99279Z" fill="black"/>
<path d="M192.962 10.0682H194.464V11.1081C194.449 11.2384 194.449 11.3698 194.464 11.5C194.486 11.6258 194.537 11.7445 194.614 11.8467H195.515C195.454 11.7247 195.418 11.5913 195.41 11.4548C195.41 11.3041 195.41 11.1534 195.41 11.0026V7.64156H194.464V9.14876H192.962V7.64156H192.001V11.8467H192.962V10.0682Z" fill="black"/>
<path d="M199.089 10.7163C198.992 10.8331 198.87 10.9272 198.732 10.9923C198.595 11.0573 198.445 11.0917 198.293 11.0931C198.161 11.0954 198.029 11.0701 197.906 11.0189C197.784 10.9676 197.673 10.8914 197.582 10.7951C197.49 10.6988 197.419 10.5845 197.374 10.4594C197.328 10.3343 197.309 10.2011 197.317 10.0682H199.96V9.58585C199.962 9.29516 199.921 9.0058 199.84 8.72674C199.768 8.4949 199.65 8.27975 199.495 8.09372C199.334 7.92484 199.139 7.79139 198.924 7.70184C198.685 7.60788 198.43 7.5618 198.173 7.56619C197.915 7.55941 197.658 7.61092 197.422 7.71691C197.201 7.80987 197.006 7.95457 196.852 8.13893C196.683 8.3239 196.559 8.54581 196.491 8.78703C196.398 9.05321 196.352 9.33384 196.356 9.61599V9.93251C196.333 10.2043 196.365 10.478 196.45 10.737C196.535 10.9961 196.672 11.2351 196.852 11.4397C197.052 11.627 197.289 11.7705 197.547 11.8613C197.806 11.9521 198.08 11.9882 198.353 11.9672C198.678 11.9805 199.001 11.9031 199.284 11.7434C199.568 11.5837 199.802 11.3482 199.96 11.0629L199.089 10.7163ZM198.173 8.39516C198.684 8.39516 198.969 8.71167 199.029 9.3447H197.317C197.417 8.71167 197.703 8.39516 198.173 8.39516Z" fill="black"/>
<path d="M213.101 10.7162C213 10.8327 212.875 10.9264 212.735 10.9913C212.596 11.0563 212.444 11.0909 212.29 11.0931C212.157 11.0954 212.025 11.0701 211.903 11.0189C211.78 10.9676 211.67 10.8914 211.578 10.7951C211.486 10.6988 211.416 10.5845 211.37 10.4594C211.325 10.3343 211.305 10.2011 211.314 10.0681H213.987V9.58584C213.988 9.29516 213.948 9.00579 213.867 8.72673C213.783 8.49684 213.661 8.28281 213.506 8.09371C213.351 7.92519 213.161 7.79164 212.951 7.70183C212.711 7.60933 212.456 7.5633 212.2 7.56618C211.936 7.55917 211.675 7.61065 211.434 7.71691C211.216 7.81608 211.022 7.95983 210.863 8.13892C210.705 8.33133 210.583 8.55091 210.503 8.78702C210.422 9.0558 210.381 9.3352 210.383 9.61599V9.9325C210.339 10.4788 210.511 11.0205 210.863 11.4397C211.064 11.6262 211.301 11.7693 211.559 11.86C211.818 11.9508 212.092 11.9873 212.365 11.9672C212.69 11.9841 213.014 11.9081 213.298 11.7481C213.583 11.588 213.816 11.3505 213.972 11.0629L213.101 10.7162ZM212.185 8.39515C212.695 8.39515 212.981 8.71166 213.026 9.34469H211.329C211.389 8.71166 211.674 8.39515 212.185 8.39515Z" fill="black"/>
<path d="M206.268 10.9122V9.16382C206.275 8.91342 206.24 8.6636 206.163 8.42529C206.094 8.23893 205.986 8.06939 205.847 7.92791C205.703 7.80271 205.534 7.71017 205.352 7.65662C205.147 7.59494 204.934 7.56446 204.721 7.56618C204.347 7.56236 203.98 7.67274 203.67 7.8827C203.359 8.09927 203.127 8.41141 203.009 8.77195L203.895 9.02818C203.937 8.84535 204.037 8.68125 204.18 8.56094C204.329 8.45312 204.507 8.3951 204.691 8.39515C204.855 8.38305 205.019 8.42541 205.156 8.51572C205.209 8.56306 205.251 8.62118 205.28 8.68617C205.308 8.75116 205.322 8.82153 205.322 8.89253V8.98296C205.315 9.04913 205.291 9.11226 205.251 9.16544C205.211 9.21862 205.158 9.25978 205.096 9.2844C204.928 9.35289 204.751 9.39851 204.571 9.42005C204.357 9.44287 204.147 9.48319 203.94 9.54063C203.758 9.59336 203.586 9.67476 203.429 9.78178C203.285 9.87948 203.171 10.0151 203.099 10.1737C203.004 10.3653 202.957 10.5776 202.964 10.7916C202.96 10.952 202.991 11.1113 203.054 11.2588C203.104 11.389 203.181 11.5071 203.279 11.6055C203.377 11.7047 203.495 11.7818 203.625 11.8316C203.764 11.8544 203.906 11.8544 204.045 11.8316C204.304 11.84 204.561 11.7884 204.796 11.6809C205.002 11.5892 205.19 11.4616 205.352 11.3041C205.391 11.4777 205.474 11.6384 205.592 11.7713H206.478C206.427 11.6404 206.391 11.5038 206.373 11.3643C206.283 11.2739 206.268 11.1081 206.268 10.9122ZM205.322 10.3093C205.309 10.4259 205.274 10.5387 205.216 10.6409C205.158 10.7351 205.081 10.817 204.991 10.882C204.896 10.9413 204.795 10.9917 204.691 11.0328C204.576 11.0474 204.46 11.0474 204.345 11.0328C204.238 11.035 204.133 11.0033 204.045 10.9423C204.002 10.9026 203.968 10.8533 203.948 10.7984C203.927 10.7434 203.919 10.6843 203.925 10.6258C203.897 10.5375 203.897 10.4428 203.925 10.3545C203.971 10.2803 204.039 10.2223 204.12 10.1887C204.21 10.1428 204.306 10.1123 204.405 10.0983H204.721H205.021C205.107 10.0868 205.189 10.0559 205.261 10.0079V10.3847L205.322 10.3093Z" fill="black"/>
<path d="M208.235 8.50066H209.932V7.64156H207.289V11.8467H208.235V8.50066Z" fill="black"/>
<path d="M215.789 10.0682H217.291V11.1081C217.284 11.2387 217.284 11.3695 217.291 11.5C217.311 11.6291 217.369 11.7495 217.456 11.8467H218.342C218.287 11.7221 218.252 11.59 218.237 11.4548C218.237 11.3041 218.237 11.1534 218.237 11.0026V7.64156H217.291V9.14876H215.789V7.64156H214.828V11.8467H215.789V10.0682Z" fill="black"/>
<path d="M220.084 11.8467H221.045V8.50066H222.216V7.64156H218.928V8.50066H220.084V11.8467Z" fill="black"/>
<path d="M226.076 10.8067L225.235 10.5052C225.19 10.6952 225.091 10.868 224.95 11.0026C224.797 11.1135 224.612 11.1717 224.424 11.1684C224.302 11.1759 224.18 11.1522 224.07 11.0995C223.96 11.0468 223.864 10.9668 223.793 10.867C223.633 10.5995 223.56 10.2888 223.583 9.97772V9.66121C223.56 9.35009 223.633 9.03939 223.793 8.77195C223.862 8.66998 223.957 8.5883 224.068 8.53531C224.179 8.48233 224.302 8.45996 224.424 8.47051C224.865 8.47051 225.12 8.72673 225.19 9.23918L226.061 8.99803C225.986 8.60763 225.786 8.25273 225.49 7.9882C225.187 7.74916 224.809 7.62626 224.424 7.64155C224.183 7.62966 223.943 7.67072 223.72 7.76184C223.497 7.85297 223.296 7.99196 223.133 8.16907C222.796 8.59575 222.63 9.13322 222.667 9.67628V9.99279C222.624 10.5365 222.79 11.0762 223.133 11.5C223.293 11.6824 223.493 11.8259 223.716 11.9199C223.94 12.0139 224.182 12.0558 224.424 12.0426C224.799 12.0514 225.167 11.9406 225.475 11.7261C225.777 11.4997 225.989 11.1743 226.076 10.8067Z" fill="black"/>
<path d="M226.451 8.50066H227.608V11.8467H228.569V8.50066H229.725V7.64156H226.451V8.50066Z" fill="black"/>
<path d="M232.984 9.46527C233.144 9.38803 233.279 9.26806 233.375 9.11861C233.468 8.96447 233.515 8.78649 233.51 8.60616C233.514 8.4676 233.481 8.33042 233.415 8.20862C233.349 8.08682 233.252 7.98477 233.134 7.91285C232.81 7.71375 232.433 7.61907 232.053 7.64155H230.371V11.8467H232.008C232.263 11.8507 232.517 11.8099 232.759 11.7261C232.947 11.6606 233.121 11.5581 233.269 11.4246C233.396 11.3047 233.498 11.1614 233.57 11.0026C233.627 10.8639 233.658 10.7156 233.66 10.5655C233.671 10.3124 233.597 10.063 233.45 9.85714C233.327 9.692 233.168 9.55783 232.984 9.46527ZM231.332 8.48558H232.008C232.368 8.48558 232.549 8.62123 232.549 8.86239C232.553 8.923 232.544 8.98379 232.523 9.04089C232.503 9.09798 232.47 9.15012 232.428 9.19397C232.373 9.24562 232.305 9.28237 232.232 9.30081C232.158 9.31925 232.081 9.31879 232.008 9.29948H231.302L231.332 8.48558ZM232.579 10.882C232.425 10.9739 232.247 11.016 232.068 11.0026H231.332V10.0531H232.008C232.195 10.0354 232.382 10.0721 232.549 10.1586C232.602 10.2013 232.644 10.2569 232.67 10.3201C232.696 10.3833 232.706 10.4522 232.699 10.5203C232.706 10.5858 232.699 10.652 232.679 10.7145C232.658 10.777 232.624 10.8342 232.579 10.882Z" fill="black"/>
<path d="M237.519 8.09371C237.347 7.91469 237.139 7.77492 236.908 7.68389C236.678 7.59287 236.43 7.55272 236.183 7.56618C235.938 7.55392 235.693 7.59468 235.465 7.6857C235.237 7.77672 235.031 7.91586 234.861 8.09371C234.508 8.51303 234.331 9.05314 234.366 9.60092V9.91743C234.345 10.189 234.378 10.4621 234.463 10.7207C234.549 10.9794 234.684 11.2186 234.861 11.4246C235.028 11.6068 235.233 11.7499 235.462 11.8437C235.69 11.9374 235.936 11.9796 236.183 11.9672C236.432 11.9819 236.681 11.9408 236.912 11.847C237.143 11.7531 237.351 11.6089 237.519 11.4246C237.695 11.2179 237.828 10.9782 237.911 10.7195C237.993 10.4607 238.023 10.1881 238 9.91743V9.60092C238.039 9.05516 237.867 8.51529 237.519 8.09371ZM237.054 9.90236C237.054 10.7012 236.769 11.0931 236.183 11.0931C236.059 11.1018 235.934 11.0787 235.821 11.026C235.708 10.9732 235.611 10.8926 235.537 10.7916C235.377 10.5242 235.304 10.2135 235.327 9.90236V9.58584C235.327 8.78702 235.612 8.39515 236.183 8.39515C236.754 8.39515 237.054 8.78702 237.054 9.58584V9.90236Z" fill="black"/>
<path d="M162.927 22.6383H163.828C163.906 22.5669 163.959 22.4715 163.978 22.367C163.993 22.2569 163.993 22.1454 163.978 22.0354V20.9653H164.744C165.012 20.9707 165.278 20.9193 165.525 20.8146C165.749 20.7198 165.949 20.5755 166.11 20.3925C166.284 20.2001 166.416 19.9745 166.501 19.7294C166.594 19.458 166.64 19.1724 166.636 18.8853V18.614C166.685 18.0791 166.541 17.5444 166.231 17.1068C166.09 16.934 165.91 16.7974 165.707 16.7083C165.503 16.6191 165.281 16.5801 165.059 16.5944C164.833 16.6257 164.618 16.7081 164.428 16.8355C164.238 16.9371 164.07 17.0754 163.933 17.2425C163.907 17.1536 163.872 17.0677 163.828 16.9862C163.79 16.9116 163.744 16.841 163.693 16.7752H162.927C162.976 16.9067 163.011 17.0432 163.032 17.1822C163.032 17.348 163.032 17.5138 163.032 17.6946V21.9902C163.046 22.1103 163.046 22.2318 163.032 22.3519C163.022 22.4548 162.986 22.5534 162.927 22.6383ZM164.023 18.8401C164.001 18.4971 164.068 18.1542 164.218 17.8453C164.286 17.7326 164.384 17.6407 164.5 17.5796C164.617 17.5185 164.748 17.4905 164.879 17.4987C165.003 17.49 165.128 17.5131 165.241 17.5658C165.354 17.6185 165.451 17.6991 165.525 17.8001C165.685 18.0676 165.758 18.3783 165.735 18.6894V18.9607C165.756 19.278 165.666 19.5927 165.48 19.8499C165.392 19.9453 165.285 20.0203 165.166 20.0698C165.047 20.1193 164.918 20.142 164.789 20.1363H164.023V18.8401Z" fill="black"/>
<path d="M169.204 21.0256C169.451 21.039 169.699 20.9989 169.93 20.9079C170.16 20.8168 170.369 20.6771 170.541 20.498C170.883 20.0735 171.054 19.5358 171.021 18.9908V18.6743C171.054 18.1293 170.883 17.5916 170.541 17.1671C170.369 16.9881 170.16 16.8483 169.93 16.7573C169.699 16.6663 169.451 16.6261 169.204 16.6396C168.957 16.629 168.71 16.6705 168.48 16.7614C168.25 16.8522 168.041 16.9904 167.867 17.1671C167.525 17.5916 167.354 18.1293 167.387 18.6743V18.9908C167.354 19.5358 167.525 20.0735 167.867 20.498C168.041 20.6747 168.25 20.8129 168.48 20.9038C168.71 20.9946 168.957 21.0361 169.204 21.0256ZM168.348 18.6894C168.348 17.8906 168.633 17.4987 169.204 17.4987C169.775 17.4987 170.075 17.8906 170.075 18.6894V19.0059C170.075 19.8047 169.79 20.1966 169.204 20.1966C169.079 20.2099 168.953 20.1889 168.839 20.1358C168.726 20.0827 168.628 19.9995 168.558 19.8951C168.398 19.6277 168.325 19.317 168.348 19.0059V18.6894Z" fill="black"/>
<path d="M173.664 20.1514C173.575 20.1725 173.483 20.1725 173.394 20.1514L173.109 20.0157L172.793 19.865C172.679 19.8493 172.562 19.8493 172.448 19.865C172.344 19.8406 172.236 19.8406 172.133 19.865C172.03 19.9028 171.941 19.9712 171.877 20.061C171.793 20.1681 171.732 20.2912 171.697 20.4227C171.67 20.6177 171.67 20.8155 171.697 21.0105H172.478C172.486 20.9306 172.512 20.8535 172.553 20.7844C172.607 20.7671 172.664 20.7671 172.718 20.7844H172.974L173.259 20.905L173.574 21.0105C173.683 21.032 173.796 21.032 173.905 21.0105C174.087 21.0155 174.268 20.974 174.43 20.8899C174.572 20.8058 174.699 20.6988 174.806 20.5734C174.899 20.4458 174.97 20.3031 175.016 20.1514C175.038 19.9914 175.038 19.8291 175.016 19.6691C175.028 19.4298 174.953 19.1944 174.806 19.0059C174.659 18.8308 174.474 18.6916 174.265 18.599C174.425 18.5253 174.561 18.4061 174.654 18.256C174.747 18.106 174.795 17.9318 174.791 17.7549C174.786 17.6083 174.75 17.4644 174.686 17.3329C174.611 17.2018 174.508 17.0886 174.385 17.0013C174.25 16.8907 174.09 16.8133 173.92 16.7752C173.716 16.7114 173.503 16.6809 173.289 16.6848C172.924 16.6782 172.566 16.7892 172.268 17.0013C171.964 17.2218 171.738 17.5331 171.622 17.8906L172.493 18.1619C172.519 17.9782 172.611 17.8105 172.752 17.6909C172.894 17.5713 173.074 17.5083 173.259 17.5138C173.416 17.4998 173.573 17.5485 173.694 17.6494C173.739 17.6953 173.773 17.7496 173.797 17.8091C173.82 17.8686 173.831 17.9322 173.83 17.9961C173.834 18.0603 173.824 18.1247 173.801 18.1846C173.777 18.2445 173.741 18.2985 173.694 18.3427C173.585 18.4341 173.446 18.4823 173.304 18.4784H172.853V19.2018H173.439C173.622 19.1969 173.802 19.2383 173.965 19.3224C174.029 19.3647 174.08 19.4232 174.115 19.492C174.149 19.5608 174.165 19.6375 174.16 19.7143C174.162 19.8334 174.125 19.9499 174.055 20.0459C174.001 20.0909 173.939 20.1236 173.871 20.1419C173.804 20.1601 173.733 20.1633 173.664 20.1514Z" fill="black"/>
<path d="M178.305 20.8296C178.494 20.7669 178.669 20.6641 178.815 20.5282C178.946 20.4178 179.048 20.2785 179.116 20.1212C179.172 19.9769 179.202 19.8239 179.206 19.6691C179.219 19.4179 179.15 19.1693 179.011 18.9607C178.871 18.7946 178.696 18.6609 178.5 18.5688C178.654 18.4968 178.785 18.3816 178.875 18.2372C178.979 18.0812 179.031 17.8969 179.026 17.7097C179.027 17.57 178.991 17.4324 178.923 17.3107C178.854 17.1891 178.755 17.0876 178.635 17.0164C178.311 16.8173 177.933 16.7226 177.554 16.7451H175.887V20.9502H177.569C177.819 20.9543 178.069 20.9135 178.305 20.8296ZM176.803 17.6042H177.449C177.824 17.6042 178.004 17.7248 178.004 17.9659C178.021 18.0294 178.025 18.0958 178.014 18.1608C178.004 18.2257 177.98 18.2877 177.944 18.3427C177.895 18.3902 177.835 18.4268 177.771 18.4501C177.706 18.4735 177.637 18.4831 177.569 18.4784H176.863L176.803 17.6042ZM176.803 19.1114H177.509C177.691 19.0932 177.874 19.1299 178.034 19.2169C178.092 19.2603 178.137 19.3178 178.166 19.3837C178.195 19.4497 178.206 19.522 178.2 19.5937C178.203 19.6614 178.192 19.7291 178.166 19.7917C178.14 19.8544 178.1 19.9103 178.049 19.9554C177.895 20.045 177.716 20.082 177.539 20.0609H176.803V19.1114Z" fill="black"/>
<path d="M183.726 20.9502C183.665 20.8336 183.629 20.7051 183.621 20.5734C183.621 20.4076 183.621 20.2569 183.621 20.1212V16.7451H182.66V17.4987C182.659 17.6461 182.599 17.787 182.495 17.8906C182.375 18.0222 182.245 18.1432 182.104 18.2523L181.579 18.6291L181.053 18.9908V16.7451H180.107V20.9502H181.053V20.2418C181.059 20.0954 181.118 19.9561 181.218 19.8499C181.34 19.7147 181.476 19.5934 181.624 19.4882C181.785 19.3507 181.955 19.2248 182.134 19.1114L182.66 18.7497V20.2569C182.645 20.3921 182.645 20.5286 182.66 20.6638C182.685 20.7842 182.736 20.8974 182.81 20.9954L183.726 20.9502Z" fill="black"/>
<path d="M187.526 16.7602H184.252V17.6193H185.408V20.9502H186.369V17.6193H187.526V16.7602Z" fill="black"/>
<path d="M191.55 20.709C191.475 20.6281 191.405 20.5425 191.34 20.4528L190.304 18.9456C190.365 18.8484 190.42 18.7477 190.469 18.6442L190.589 18.3277C190.656 18.1629 190.731 18.0019 190.814 17.8453C190.849 17.7796 190.9 17.7248 190.964 17.6875C191.028 17.6501 191.101 17.6317 191.175 17.6343H191.46V16.6697H191.235C191.046 16.6645 190.857 16.6951 190.679 16.7602C190.55 16.8243 190.433 16.9111 190.334 17.0164C190.241 17.1221 190.17 17.245 190.124 17.3781C190.124 17.5138 190.019 17.6494 189.973 17.7851C189.928 17.9207 189.898 18.0111 189.853 18.1166C189.809 18.2102 189.759 18.3008 189.703 18.3879C189.641 18.4609 189.57 18.5266 189.493 18.5839C189.388 18.6317 189.277 18.6622 189.163 18.6743V15.2077H188.201V20.9351H189.163V19.5033C189.322 19.5272 189.484 19.5272 189.643 19.5033L190.349 20.6035C190.405 20.6911 190.47 20.772 190.544 20.8447C190.613 20.9107 190.695 20.962 190.784 20.9954H191.851L191.55 20.709Z" fill="black"/>
<path d="M193.998 19.8499L193.157 17.2123C193.151 17.1371 193.151 17.0615 193.157 16.9862L193.037 16.8054H191.986L192.136 17.0315C192.136 17.0315 192.136 17.1973 192.241 17.2877L193.578 20.9954L193.488 21.2667C193.445 21.3551 193.389 21.4364 193.322 21.5079C193.259 21.5842 193.176 21.6415 193.082 21.6737C192.968 21.6976 192.851 21.6976 192.737 21.6737H192.496V22.6533H192.722C192.954 22.6582 193.185 22.6119 193.398 22.5177C193.586 22.4195 193.759 22.2924 193.908 22.1409C194.054 21.9697 194.18 21.7826 194.284 21.5832C194.392 21.3648 194.482 21.138 194.554 20.905L195.89 16.7602H194.884L193.998 19.8499Z" fill="black"/>
<path d="M198.263 17.6193H199.42V20.9502H200.381V17.6193H201.552V16.7602H198.263V17.6193Z" fill="black"/>
<path d="M203.865 19.8499L203.024 17.2123V16.9862C202.994 16.9195 202.954 16.8583 202.904 16.8054H201.852L202.003 17.0315C202.003 17.0315 202.078 17.1973 202.108 17.2877L203.444 20.9954C203.428 21.0898 203.398 21.1813 203.354 21.2667C203.317 21.358 203.261 21.4402 203.189 21.5079C203.126 21.5842 203.042 21.6415 202.949 21.6737C202.84 21.6978 202.727 21.6978 202.618 21.6737H202.363V22.6533H202.603C202.831 22.659 203.057 22.6126 203.264 22.5177C203.455 22.4234 203.628 22.2958 203.775 22.1409C203.925 21.9735 204.052 21.7858 204.15 21.5832C204.257 21.3623 204.352 21.1359 204.436 20.905L205.757 16.7602H204.751L203.865 19.8499Z" fill="black"/>
<path d="M208.31 16.6697C208.087 16.6663 207.867 16.7127 207.664 16.8054C207.474 16.907 207.306 17.0453 207.169 17.2123C207.143 17.1234 207.108 17.0375 207.064 16.9561C207.026 16.8815 206.98 16.8108 206.928 16.7451H206.117C206.167 16.8766 206.202 17.013 206.223 17.152C206.223 17.3178 206.223 17.4836 206.223 17.6645V21.96C206.23 22.0805 206.23 22.2013 206.223 22.3218C206.207 22.4349 206.165 22.543 206.102 22.6383H207.004C207.082 22.5669 207.135 22.4715 207.154 22.367C207.168 22.2569 207.168 22.1454 207.154 22.0354V20.9653H207.98C208.248 20.9707 208.514 20.9193 208.761 20.8146C208.985 20.7198 209.185 20.5755 209.346 20.3925C209.52 20.2001 209.652 19.9745 209.737 19.7294C209.83 19.458 209.876 19.1724 209.872 18.8853V18.614C209.921 18.0791 209.777 17.5444 209.466 17.1068C209.321 16.9489 209.14 16.8272 208.94 16.7513C208.739 16.6754 208.523 16.6475 208.31 16.6697ZM208.926 18.9607C208.947 19.278 208.857 19.5927 208.671 19.8499C208.583 19.9453 208.476 20.0203 208.357 20.0698C208.237 20.1193 208.109 20.142 207.98 20.1363H207.214V18.8401C207.191 18.4971 207.259 18.1542 207.409 17.8454C207.477 17.7326 207.575 17.6407 207.691 17.5796C207.808 17.5185 207.939 17.4905 208.07 17.4987C208.194 17.49 208.318 17.5131 208.431 17.5658C208.544 17.6185 208.642 17.6991 208.716 17.8001C208.876 18.0676 208.949 18.3783 208.926 18.6894V18.9607Z" fill="black"/>
<path d="M214.302 20.1212V16.7451H213.341V17.4987C213.333 17.6445 213.274 17.783 213.176 17.8906C213.054 18.0258 212.918 18.1471 212.77 18.2523L212.26 18.6291L211.734 18.9908V16.7451H210.773V20.9502H211.734V20.2418C211.734 20.1687 211.748 20.0963 211.777 20.0289C211.805 19.9616 211.847 19.9007 211.899 19.8499C212.019 19.7183 212.149 19.5973 212.29 19.4882C212.456 19.3506 212.632 19.2247 212.815 19.1114L213.341 18.7497V20.2569C213.334 20.3924 213.334 20.5283 213.341 20.6638C213.366 20.7842 213.417 20.8974 213.491 20.9954H214.392C214.337 20.8762 214.302 20.749 214.287 20.6186C214.302 20.4076 214.302 20.2569 214.302 20.1212Z" fill="black"/>
<path d="M217.786 18.5839C217.945 18.5096 218.078 18.3897 218.169 18.2395C218.26 18.0893 218.304 17.9154 218.297 17.7398C218.297 17.5943 218.267 17.4503 218.207 17.3178C218.132 17.1867 218.029 17.0736 217.906 16.9862C217.769 16.8783 217.61 16.8012 217.441 16.7602C217.237 16.6963 217.024 16.6658 216.81 16.6697C216.444 16.661 216.086 16.7721 215.789 16.9862C215.481 17.2059 215.25 17.5169 215.128 17.8755L216.014 18.1468C216.037 17.9617 216.128 17.792 216.27 17.6717C216.412 17.5515 216.594 17.4897 216.78 17.4987C216.937 17.4847 217.094 17.5334 217.216 17.6343C217.26 17.6803 217.295 17.7345 217.318 17.7941C217.341 17.8536 217.352 17.9171 217.351 17.981C217.357 18.0468 217.346 18.1131 217.32 18.1737C217.294 18.2343 217.253 18.2873 217.201 18.3277C217.098 18.4206 216.963 18.4694 216.825 18.4633H216.375V19.1868H216.99C217.168 19.1802 217.345 19.2219 217.501 19.3073C217.567 19.3472 217.621 19.4052 217.656 19.4747C217.69 19.5441 217.704 19.622 217.696 19.6992C217.705 19.8192 217.667 19.938 217.591 20.0308C217.548 20.0736 217.496 20.1066 217.439 20.1274C217.382 20.1482 217.321 20.1564 217.261 20.1514C217.172 20.1725 217.079 20.1725 216.99 20.1514L216.705 20.0157L216.39 19.865C216.27 19.8481 216.149 19.8481 216.029 19.865C215.93 19.8424 215.828 19.8424 215.729 19.865C215.626 19.9028 215.537 19.9712 215.474 20.0609C215.39 20.1681 215.328 20.2911 215.293 20.4227C215.266 20.6177 215.266 20.8155 215.293 21.0105H216.074C216.059 20.9359 216.059 20.859 216.074 20.7844C216.128 20.7671 216.186 20.7671 216.239 20.7844H216.495L216.78 20.905L217.095 21.0105C217.205 21.032 217.317 21.032 217.426 21.0105C217.608 21.0155 217.789 20.974 217.951 20.8899C218.093 20.8058 218.22 20.6988 218.327 20.5734C218.42 20.4458 218.492 20.3031 218.537 20.1514C218.559 19.9914 218.559 19.8291 218.537 19.6691C218.541 19.4308 218.468 19.1978 218.327 19.0059C218.181 18.8253 217.996 18.6809 217.786 18.5839Z" fill="black"/>
<path d="M223.433 20.1212V16.7451H222.487V17.0315C222.478 17.1969 222.443 17.3599 222.382 17.5138C222.314 17.6786 222.228 17.8353 222.126 17.981L221.781 18.4332L221.406 18.8552C221.285 18.7195 221.165 18.5688 221.03 18.4332L220.7 17.981C220.608 17.8316 220.528 17.6754 220.459 17.5138C220.403 17.359 220.373 17.1961 220.369 17.0315V16.7602H219.423V20.9653H220.369V18.7647L220.685 19.1265L220.985 19.5033C221.075 19.6389 221.165 19.7746 221.24 19.9102C221.319 20.0369 221.379 20.1738 221.421 20.3172C221.421 20.1815 221.526 20.0609 221.586 19.9102C221.646 19.7595 221.751 19.6389 221.841 19.5033C221.931 19.3676 222.036 19.2471 222.141 19.1114L222.472 18.7647V20.272C222.464 20.4025 222.464 20.5333 222.472 20.6638C222.492 20.793 222.55 20.9133 222.637 21.0105H223.538C223.471 20.8951 223.43 20.7665 223.418 20.6337C223.448 20.4076 223.433 20.2569 223.433 20.1212Z" fill="black"/>
<path d="M226.241 19.8499L225.4 17.2123C225.394 17.1371 225.394 17.0615 225.4 16.9862L225.28 16.8054H224.229C224.285 16.8737 224.33 16.9499 224.364 17.0315C224.364 17.0315 224.364 17.1973 224.484 17.2877L225.821 20.9954L225.731 21.2667C225.688 21.3551 225.632 21.4364 225.565 21.5079C225.502 21.5842 225.419 21.6415 225.325 21.6737C225.211 21.6976 225.094 21.6976 224.98 21.6737H224.739V22.6533H224.965C225.197 22.6582 225.428 22.6119 225.64 22.5177C225.829 22.4195 226.001 22.2924 226.151 22.1409C226.297 21.9697 226.423 21.7826 226.527 21.5832C226.635 21.3648 226.725 21.138 226.797 20.905L228.133 16.7602H227.127L226.241 19.8499Z" fill="black"/>
<path d="M165.314 27.7176L164.278 25.0347C164.278 24.9142 164.173 24.7936 164.113 24.6579C164.064 24.5387 163.998 24.4271 163.918 24.3264H162.701C162.802 24.4298 162.888 24.5464 162.957 24.673C163.039 24.8125 163.109 24.9588 163.167 25.1101L164.789 28.8932C164.736 28.9679 164.663 29.0255 164.579 29.059C164.469 29.0778 164.358 29.0778 164.248 29.059H163.903V30.0839H164.083H164.293C164.498 30.0848 164.702 30.049 164.894 29.9784C165.052 29.9133 165.196 29.8158 165.314 29.692C165.434 29.5834 165.536 29.4562 165.615 29.3152C165.69 29.1645 165.75 29.0288 165.81 28.8781L167.567 24.3565H166.501L165.314 27.7176Z" fill="black"/>
<path d="M171.367 29.8277C171.283 29.7488 171.212 29.6573 171.156 29.5564L170.12 28.0492C170.185 27.9568 170.236 27.8552 170.27 27.7477L170.436 27.386C170.491 27.2191 170.561 27.0577 170.646 26.9037C170.685 26.8389 170.74 26.7854 170.806 26.7484C170.872 26.7114 170.946 26.6922 171.021 26.6927H171.261V25.8788H171.036C170.84 25.8234 170.632 25.8234 170.436 25.8788C170.303 25.9378 170.185 26.0253 170.09 26.135C169.998 26.2442 169.922 26.366 169.865 26.4967L169.715 26.9037C169.681 27.0116 169.641 27.1173 169.595 27.2202C169.562 27.3162 169.516 27.4075 169.459 27.4915C169.403 27.5762 169.326 27.6439 169.234 27.6874C169.134 27.749 169.021 27.7853 168.904 27.7929V24.3716H167.958V30.114H168.934V28.6068C169.093 28.6244 169.255 28.6244 169.414 28.6068L170.12 29.692C170.178 29.7827 170.248 29.864 170.33 29.9332C170.396 30.0065 170.479 30.0633 170.571 30.099H171.637C171.535 30.0214 171.444 29.9301 171.367 29.8277Z" fill="black"/>
<path d="M174.205 25.7883C173.982 25.785 173.762 25.8313 173.559 25.924C173.363 26.0157 173.192 26.1557 173.064 26.3309C173.042 26.2378 173.012 26.147 172.974 26.0596C172.932 25.9881 172.882 25.9223 172.823 25.8637H172.012C172.071 25.9868 172.107 26.1196 172.117 26.2556C172.117 26.4214 172.117 26.6022 172.117 26.7831V31.0787C172.124 31.1991 172.124 31.3199 172.117 31.4404C172.102 31.5538 172.061 31.6622 171.997 31.7569H172.898C172.981 31.6863 173.039 31.5913 173.064 31.4856C173.07 31.3752 173.07 31.2644 173.064 31.154V30.0839H173.83C174.097 30.0818 174.361 30.0308 174.61 29.9332C174.836 29.8332 175.04 29.6898 175.211 29.5112C175.377 29.3156 175.504 29.0907 175.587 28.848C175.68 28.5714 175.726 28.2809 175.722 27.9889V27.7176C175.75 27.2151 175.613 26.7172 175.331 26.3008C175.195 26.1343 175.023 26.0015 174.828 25.9126C174.632 25.8238 174.419 25.7812 174.205 25.7883ZM174.821 28.0793C174.847 28.3901 174.762 28.7 174.58 28.9535C174.492 29.0517 174.383 29.1286 174.26 29.1782C174.138 29.2278 174.006 29.2489 173.875 29.2399H173.109V27.9437C173.083 27.5987 173.155 27.2535 173.319 26.9489C173.385 26.839 173.481 26.7498 173.595 26.6912C173.709 26.6326 173.837 26.6071 173.965 26.6173C174.089 26.604 174.215 26.625 174.329 26.6781C174.443 26.7312 174.54 26.8144 174.61 26.9188C174.771 27.1862 174.844 27.4969 174.821 27.808V28.0793Z" fill="black"/>
<path d="M179.746 29.1343V27.386C179.746 27.136 179.711 26.8874 179.641 26.6474C179.573 26.4611 179.465 26.2915 179.326 26.1501C179.182 26.0249 179.013 25.9323 178.83 25.8788C178.626 25.8171 178.413 25.7866 178.2 25.7883C177.825 25.7816 177.457 25.8922 177.148 26.1049C176.838 26.3214 176.606 26.6336 176.488 26.9941L177.374 27.2503C177.415 27.0675 177.516 26.9034 177.659 26.7831C177.802 26.6639 177.984 26.6046 178.17 26.6173C178.334 26.6074 178.496 26.6495 178.635 26.7379C178.736 26.8377 178.795 26.9725 178.8 27.1147C178.794 27.1847 178.768 27.2514 178.725 27.3074C178.683 27.3633 178.626 27.4062 178.56 27.4312C178.397 27.4998 178.225 27.5454 178.049 27.5668C177.836 27.5897 177.625 27.63 177.419 27.6874C177.24 27.7415 177.068 27.8175 176.908 27.9135C176.766 28.0239 176.649 28.1624 176.563 28.3204C176.48 28.5156 176.439 28.7262 176.443 28.9384C176.439 29.0988 176.47 29.2581 176.533 29.4056C176.586 29.534 176.663 29.6514 176.758 29.7523C176.857 29.8498 176.974 29.9266 177.103 29.9784C177.243 30.0012 177.385 30.0012 177.524 29.9784C177.782 29.9867 178.039 29.9352 178.275 29.8277C178.479 29.7325 178.666 29.6053 178.83 29.4508C178.87 29.6244 178.953 29.7852 179.071 29.9181H179.882C179.825 29.7889 179.79 29.6515 179.776 29.5111C179.761 29.4961 179.746 29.3152 179.746 29.1343ZM178.8 28.5315C178.788 28.648 178.752 28.7609 178.695 28.863C178.636 28.9573 178.56 29.0392 178.47 29.1042C178.371 29.1666 178.265 29.2172 178.155 29.2549C178.045 29.2696 177.934 29.2696 177.824 29.2549C177.717 29.2593 177.611 29.2275 177.524 29.1645C177.479 29.1255 177.443 29.0768 177.42 29.0219C177.396 28.9671 177.386 28.9076 177.389 28.848C177.384 28.7518 177.411 28.6568 177.464 28.5767C177.506 28.4993 177.576 28.4403 177.659 28.4109C177.742 28.363 177.834 28.3322 177.929 28.3204H178.26H178.56C178.645 28.3063 178.727 28.2756 178.8 28.23V28.6068V28.5315Z" fill="black"/>
<path d="M181.173 25.2156C181.255 25.1077 181.298 24.9746 181.293 24.8388C181.298 24.6984 181.255 24.5606 181.173 24.4469C181.128 24.3963 181.072 24.3564 181.01 24.3303C180.948 24.3043 180.88 24.2926 180.813 24.2962C180.748 24.2938 180.683 24.3061 180.623 24.3322C180.563 24.3582 180.51 24.3975 180.467 24.4469C180.374 24.5553 180.325 24.6956 180.332 24.8388C180.326 24.9774 180.375 25.1127 180.467 25.2156C180.51 25.2651 180.563 25.3043 180.623 25.3304C180.683 25.3565 180.748 25.3687 180.813 25.3663C180.88 25.3699 180.948 25.3583 181.01 25.3322C181.072 25.3061 181.128 25.2663 181.173 25.2156Z" fill="black"/>
<path d="M181.714 29.3152V25.8788H180.753V29.3453C180.739 29.4756 180.739 29.607 180.753 29.7372C180.768 29.865 180.82 29.9854 180.903 30.0839H181.804C181.747 29.9763 181.711 29.8586 181.699 29.7372C181.688 29.5964 181.693 29.4548 181.714 29.3152Z" fill="black"/>
<path d="M182.194 24.3716C182.129 24.3691 182.064 24.3814 182.005 24.4075C181.945 24.4336 181.892 24.4728 181.849 24.5223C181.755 24.6306 181.707 24.771 181.714 24.9142C181.708 25.0527 181.756 25.1881 181.849 25.291C181.892 25.3404 181.945 25.3797 182.005 25.4057C182.064 25.4318 182.129 25.4441 182.194 25.4417C182.262 25.4453 182.329 25.4336 182.392 25.4076C182.454 25.3815 182.51 25.3416 182.555 25.291C182.647 25.1881 182.696 25.0527 182.69 24.9142C182.697 24.771 182.648 24.6306 182.555 24.5223C182.51 24.4716 182.454 24.4318 182.392 24.4057C182.329 24.3796 182.262 24.368 182.194 24.3716Z" fill="black"/>
<path d="M186.279 29.2248V25.8788H185.318V27.386H183.816V25.8788H182.87V30.0839H183.816V28.2903H185.318V29.3303C185.304 29.4605 185.304 29.5919 185.318 29.7221C185.334 29.8499 185.386 29.9703 185.468 30.0688H186.354C186.307 29.9419 186.271 29.8107 186.249 29.6769C186.279 29.5262 186.279 29.3755 186.279 29.2248Z" fill="black"/>
<path d="M190.905 29.2248V25.8788H189.958V26.6324C189.958 26.7031 189.942 26.7729 189.914 26.8376C189.886 26.9023 189.845 26.9607 189.793 27.0092C189.678 27.1496 189.547 27.2761 189.403 27.386L188.877 27.7477L188.352 28.1245V25.8788H187.405V30.0839H188.352V29.3604C188.361 29.2193 188.419 29.0859 188.517 28.9836C188.638 28.8433 188.774 28.7169 188.922 28.6068L189.433 28.2451C189.616 28.1318 189.792 28.0059 189.958 27.8683V29.3755C189.945 29.5057 189.945 29.6371 189.958 29.7674C189.981 29.8931 190.032 30.0119 190.109 30.114H191.01C190.948 29.992 190.912 29.8586 190.905 29.7221C190.92 29.5262 190.905 29.3755 190.905 29.2248Z" fill="black"/>
<path d="M11.909 9.56489e-06C15.0649 -0.00399458 18.0933 1.24934 20.3291 3.48472C22.5648 5.7201 23.8251 8.75473 23.833 11.922C23.833 17.9509 20.0936 23.7988 12.7049 29.4509L12.4797 29.6166L11.909 30.0537L11.3534 29.6166C3.84452 23.9194 -1.90735e-06 18.0262 -1.90735e-06 11.922C0.001969 10.3544 0.311571 8.80256 0.911121 7.35504C1.51067 5.90753 2.38843 4.5927 3.49429 3.48564C4.60014 2.37858 5.91243 1.50096 7.35623 0.902895C8.80004 0.304829 10.3471 -0.00197098 11.909 9.56489e-06ZM11.909 2.3814C10.6219 2.37941 9.34704 2.63213 8.15735 3.1251C6.96765 3.61807 5.88647 4.3416 4.97565 5.25432C4.06483 6.16704 3.34225 7.25103 2.84924 8.44428C2.35624 9.63753 2.10247 10.9166 2.10247 12.2084C2.10247 17.2877 5.27121 22.2916 11.6988 27.2805L11.894 27.4312C18.4267 22.4423 21.6705 17.4384 21.7606 12.3139V12.1632C21.7447 9.55551 20.6983 7.06075 18.8512 5.22674C17.0041 3.39272 14.5073 2.36937 11.909 2.3814Z" fill="black"/>
<path d="M11.939 6.08913C11.6229 6.44673 11.4469 6.9073 11.4435 7.38533C11.4435 8.47052 11.5936 9.55571 11.6087 10.6409C11.5913 11.6444 11.3717 12.6339 10.9629 13.5498C10.8277 13.806 10.7076 14.0623 10.5724 14.3034H10.167C10.0828 14.2872 10.0027 14.2544 9.93137 14.2068C9.86 14.1593 9.79876 14.0979 9.75124 14.0264C9.70372 13.9549 9.67087 13.8746 9.65458 13.7901C9.63829 13.7057 9.63889 13.6189 9.65636 13.5347C9.68737 13.3858 9.76847 13.2521 9.88604 13.1561C10.0036 13.06 10.1505 13.0075 10.3021 13.0072H10.4373L10.1219 10.3395C10.0685 9.77001 9.89655 9.21818 9.61715 8.71967C9.33776 8.22117 8.95715 7.78712 8.5 7.44562C8.34641 7.32283 8.18028 7.21674 8.00441 7.1291V16.5944H10.197C10.3615 17.466 10.8433 18.2451 11.5486 18.7798C11.7122 18.8915 11.8462 19.0415 11.939 19.2169C12.0375 19.0409 12.1766 18.891 12.3445 18.7798C13.0453 18.2435 13.5218 17.4643 13.6811 16.5944H15.8737V7.1291C15.7018 7.22368 15.5362 7.3294 15.3781 7.44562C14.9209 7.78712 14.5403 8.22117 14.2609 8.71967C13.9815 9.21818 13.8096 9.77001 13.7562 10.3395L13.4408 13.0072H13.591C13.74 13.0109 13.8834 13.065 13.9979 13.1607C14.1124 13.2565 14.1913 13.3883 14.2217 13.5347C14.2392 13.6189 14.2398 13.7057 14.2235 13.7901C14.2072 13.8746 14.1744 13.9549 14.1268 14.0264C14.0793 14.0979 14.0181 14.1593 13.9467 14.2068C13.8753 14.2544 13.7953 14.2872 13.7111 14.3034H13.3207C13.1855 14.0623 13.0504 13.806 12.9302 13.5498C12.519 12.6341 12.2943 11.645 12.2694 10.6409C12.2694 9.55571 12.4196 8.47052 12.4346 7.38533C12.4384 6.90597 12.2613 6.44293 11.939 6.08913ZM8.66519 8.44037C9.10169 8.94589 9.37871 9.57016 9.46113 10.2339L9.74646 12.4194C9.58043 12.5037 9.43426 12.6226 9.31771 12.7681C9.20116 12.9137 9.11694 13.0826 9.07067 13.2634H8.69523V8.44037H8.66519ZM15.2129 8.44037V13.2634H14.8525C14.8003 13.0831 14.7121 12.9154 14.5934 12.7703C14.4746 12.6252 14.3277 12.5058 14.1617 12.4194L14.417 10.2339C14.4994 9.57016 14.7764 8.94589 15.2129 8.44037ZM11.9541 12.8565C12.1178 13.4228 12.3552 13.965 12.6599 14.4692C12.3831 14.558 12.1379 14.7256 11.9541 14.9515C11.7662 14.7232 11.5155 14.5554 11.2332 14.4692C11.5367 13.9624 11.7787 13.421 11.9541 12.8565ZM8.66519 13.9115H9.04063C9.09821 14.1343 9.21317 14.3379 9.37397 14.5019C9.53477 14.6659 9.73575 14.7846 9.95671 14.846H10.2721C10.181 15.1593 10.1355 15.4842 10.1369 15.8106H8.63516V13.8362L8.66519 13.9115ZM14.8525 13.9115H15.2279V15.886H13.7261C13.7276 15.5596 13.6821 15.2347 13.591 14.9214H13.9064C14.1273 14.86 14.3283 14.7413 14.4891 14.5773C14.6499 14.4132 14.7649 14.2096 14.8224 13.9869L14.8525 13.9115ZM10.9028 15.0721C11.0992 15.0979 11.2794 15.1948 11.4094 15.3448C11.5395 15.4947 11.6103 15.6872 11.6087 15.886H10.7977C10.7936 15.611 10.829 15.3369 10.9028 15.0721ZM12.9753 15.0721C13.0539 15.3362 13.0944 15.6103 13.0954 15.886H12.2694C12.2678 15.6872 12.3386 15.4947 12.4686 15.3448C12.5987 15.1948 12.7789 15.0979 12.9753 15.0721ZM10.8728 16.5793H11.6087V17.9509C11.2364 17.5568 10.9815 17.066 10.8728 16.5341V16.5793ZM12.2694 16.5793H13.0203C12.8988 17.0965 12.6392 17.5706 12.2694 17.9509V16.5793Z" fill="black"/>
<path d="M56.8869 6.11927V32.9626C59.5451 33.445 63.0892 34.6809 63.0892 38.886C63.1172 39.7951 62.9659 40.7007 62.6441 41.551C62.3222 42.4012 61.8361 43.1792 61.2137 43.8403C60.5913 44.5014 59.8448 45.0325 59.0173 45.4031C58.1897 45.7738 57.2973 45.9766 56.3913 46C53.523 46 50.4894 44.2818 48.5521 44.2818C48.3249 44.2587 48.0954 44.288 47.8811 44.3674C47.6669 44.4467 47.4735 44.5741 47.3156 44.7397C47.1578 44.9054 47.0397 45.105 46.9703 45.3234C46.9009 45.5418 46.8821 45.7732 46.9152 46H41.4037C41.4037 40.3178 44.4072 38.8558 48.0866 38.8558C51.5256 38.8558 53.9585 40.8453 55.7005 40.8453C55.9026 40.8682 56.1072 40.8496 56.3019 40.7908C56.4966 40.7319 56.6774 40.634 56.8332 40.5029C56.9891 40.3719 57.1168 40.2104 57.2087 40.0283C57.3005 39.8462 57.3545 39.6473 57.3675 39.4436C57.3675 38.2077 56.4965 37.9364 52.4117 37.9364H31.7023V32.6612H34.1802C37.2738 23.4069 39.4064 11.711 39.4064 9.22412C39.3847 8.17547 39.2385 7.13315 38.9708 6.11927H56.8869ZM83.4081 6.11927L92.3436 35.0727C92.6614 36.1593 93.17 37.1801 93.8454 38.0872H87.2827C86.6828 37.1873 86.222 36.2014 85.9161 35.1632L84.2191 29.2851C82.7552 30.0644 81.1148 30.4487 79.4585 30.4004C76.2597 30.6114 73.5716 30.8526 72.6855 33.6258L71.379 38.1474H65.1917L74.9832 6.25491L83.4081 6.11927ZM131.54 6.11927H151.063C150.843 6.97205 150.717 7.84642 150.687 8.72674V16.4436H144.905V11.922H140.25V38.0419H134.063V11.8919H129.317V20.3322H123.565V8.57602C123.524 7.74645 123.398 6.92329 123.19 6.11927H131.54ZM105.049 6.11927H108.292C109.649 6.08707 110.998 6.33479 112.255 6.84708C113.512 7.35937 114.652 8.12532 115.602 9.09747C116.552 10.0696 117.293 11.2273 117.78 12.4987C118.266 13.7701 118.487 15.1282 118.429 16.4889C118.429 23.5878 112.903 29.6166 103.246 29.6317V38.0118H97.0742V8.75688C97.0026 7.86487 96.8467 6.9817 96.6087 6.11927H105.049ZM50.985 11.8919H45.3233C44.3086 18.9124 42.8032 25.8527 40.818 32.6612H50.985V11.8919ZM78.4072 11.8919H78.2871L74.0521 26.1802C75.1962 25.679 76.4239 25.3978 77.6714 25.3512C79.1601 25.2861 80.6272 24.9702 82.0115 24.4168L78.4072 11.8919ZM106.941 11.8919H103.051V24.3716C108.818 24.3716 112.062 21.3571 112.062 17.2726C112.062 13.9115 110.38 11.8617 106.956 11.8617L106.941 11.8919Z" fill="black"/>
</svg>
