<svg width="57" height="68" viewBox="0 0 57 68" fill="none" xmlns="http://www.w3.org/2000/svg">
<path d="M52.0307 30.3468H31.8149C30.5022 30.3468 29.2432 30.8953 28.3146 31.8717C27.3859 32.8482 26.8636 34.1727 26.8623 35.5542V62.0723C26.8623 63.4547 27.3841 64.7805 28.3129 65.758C29.2417 66.7356 30.5014 67.2847 31.8149 67.2847H52.0307C52.6809 67.2847 53.3247 67.1498 53.9253 66.8878C54.5259 66.6258 55.0716 66.2418 55.5311 65.7577C55.9906 65.2737 56.355 64.699 56.6033 64.0666C56.8517 63.4343 56.9792 62.7566 56.9786 62.0723V35.5542C56.9786 34.1731 56.4573 32.8486 55.5294 31.872C54.6015 30.8955 53.343 30.3468 52.0307 30.3468ZM31.1929 37.8753C31.2065 37.2723 31.4469 36.6997 31.8612 36.2832C32.2756 35.8666 32.8301 35.6401 33.403 35.6534H50.2919C50.864 35.6414 51.4172 35.8685 51.8306 36.2849C52.2439 36.7014 52.4836 37.2732 52.4972 37.8753V40.4541C52.4911 40.7524 52.4292 41.0466 52.315 41.3197C52.2009 41.5928 52.0367 41.8396 51.8319 42.0459C51.6271 42.2522 51.3857 42.4141 51.1214 42.5222C50.8572 42.6303 50.5753 42.6825 50.2919 42.676H33.3983C32.8254 42.6893 32.2709 42.4628 31.8565 42.0462C31.4421 41.6297 31.2018 41.057 31.1882 40.4541L31.1929 37.8753ZM34.713 63.2378H31.6547C31.4547 63.2378 31.263 63.1542 31.1216 63.0054C30.9802 62.8565 30.9007 62.6547 30.9007 62.4443C30.9007 62.2338 30.9802 62.032 31.1216 61.8832C31.263 61.7344 31.4547 61.6508 31.6547 61.6508H34.713C34.913 61.6508 35.1047 61.7344 35.2461 61.8832C35.3875 62.032 35.467 62.2338 35.467 62.4443C35.467 62.6547 35.3875 62.8565 35.2461 63.0054C35.1047 63.1542 34.913 63.2378 34.713 63.2378ZM34.713 58.6404H31.6547C31.4644 58.6246 31.2868 58.5339 31.1573 58.3863C31.0277 58.2388 30.9558 58.0453 30.9558 57.8444C30.9558 57.6435 31.0277 57.45 31.1573 57.3025C31.2868 57.155 31.4644 57.0642 31.6547 57.0484H34.713C34.8173 57.0397 34.9223 57.0539 35.0212 57.0899C35.12 57.126 35.2108 57.1832 35.2877 57.258C35.3645 57.3327 35.4259 57.4234 35.4678 57.5244C35.5098 57.6253 35.5314 57.7342 35.5314 57.8444C35.5314 57.9545 35.5098 58.0635 35.4678 58.1645C35.4259 58.2654 35.3645 58.3561 35.2877 58.4308C35.2108 58.5056 35.12 58.5628 35.0212 58.5989C34.9223 58.635 34.8173 58.6491 34.713 58.6404ZM34.713 54.038H31.6547C31.4644 54.0222 31.2868 53.9315 31.1573 53.784C31.0277 53.6364 30.9558 53.4429 30.9558 53.2421C30.9558 53.0412 31.0277 52.8476 31.1573 52.7001C31.2868 52.5526 31.4644 52.4619 31.6547 52.4461H34.713C34.8173 52.4374 34.9223 52.4515 35.0212 52.4876C35.12 52.5237 35.2108 52.5809 35.2877 52.6556C35.3645 52.7304 35.4259 52.8211 35.4678 52.922C35.5098 53.0229 35.5314 53.1319 35.5314 53.2421C35.5314 53.3522 35.5098 53.4612 35.4678 53.5621C35.4259 53.663 35.3645 53.7537 35.2877 53.8285C35.2108 53.9032 35.12 53.9604 35.0212 53.9965C34.9223 54.0326 34.8173 54.0467 34.713 54.038ZM34.713 49.4357H31.6547C31.4547 49.4357 31.263 49.3521 31.1216 49.2033C30.9802 49.0544 30.9007 48.8526 30.9007 48.6422C30.9007 48.4317 30.9802 48.2299 31.1216 48.0811C31.263 47.9323 31.4547 47.8487 31.6547 47.8487H34.713C34.913 47.8487 35.1047 47.9323 35.2461 48.0811C35.3875 48.2299 35.467 48.4317 35.467 48.6422C35.467 48.8526 35.3875 49.0544 35.2461 49.2033C35.1047 49.3521 34.913 49.4357 34.713 49.4357ZM43.4496 63.2378H40.3913C40.1914 63.2378 39.9996 63.1542 39.8582 63.0054C39.7168 62.8565 39.6374 62.6547 39.6374 62.4443C39.6374 62.2338 39.7168 62.032 39.8582 61.8832C39.9996 61.7344 40.1914 61.6508 40.3913 61.6508H43.4496C43.6496 61.6508 43.8413 61.7344 43.9827 61.8832C44.1241 62.032 44.2036 62.2338 44.2036 62.4443C44.2036 62.6547 44.1241 62.8565 43.9827 63.0054C43.8413 63.1542 43.6496 63.2378 43.4496 63.2378ZM43.4496 58.6404H40.3913C40.201 58.6246 40.0234 58.5339 39.8939 58.3863C39.7643 58.2388 39.6924 58.0453 39.6924 57.8444C39.6924 57.6435 39.7643 57.45 39.8939 57.3025C40.0234 57.155 40.201 57.0642 40.3913 57.0484H43.4496C43.5539 57.0397 43.6589 57.0539 43.7578 57.0899C43.8567 57.126 43.9474 57.1832 44.0243 57.258C44.1011 57.3327 44.1625 57.4234 44.2044 57.5244C44.2464 57.6253 44.268 57.7342 44.268 57.8444C44.268 57.9545 44.2464 58.0635 44.2044 58.1645C44.1625 58.2654 44.1011 58.3561 44.0243 58.4308C43.9474 58.5056 43.8567 58.5628 43.7578 58.5989C43.6589 58.635 43.5539 58.6491 43.4496 58.6404ZM43.4496 54.038H40.3913C40.201 54.0222 40.0234 53.9315 39.8939 53.784C39.7643 53.6364 39.6924 53.4429 39.6924 53.2421C39.6924 53.0412 39.7643 52.8476 39.8939 52.7001C40.0234 52.5526 40.201 52.4619 40.3913 52.4461H43.4496C43.5539 52.4374 43.6589 52.4515 43.7578 52.4876C43.8567 52.5237 43.9474 52.5809 44.0243 52.6556C44.1011 52.7304 44.1625 52.8211 44.2044 52.922C44.2464 53.0229 44.268 53.1319 44.268 53.2421C44.268 53.3522 44.2464 53.4612 44.2044 53.5621C44.1625 53.663 44.1011 53.7537 44.0243 53.8285C43.9474 53.9032 43.8567 53.9604 43.7578 53.9965C43.6589 54.0326 43.5539 54.0467 43.4496 54.038ZM43.4496 49.4357H40.3913C40.1914 49.4357 39.9996 49.3521 39.8582 49.2033C39.7168 49.0544 39.6374 48.8526 39.6374 48.6422C39.6374 48.4317 39.7168 48.2299 39.8582 48.0811C39.9996 47.9323 40.1914 47.8487 40.3913 47.8487H43.4496C43.6496 47.8487 43.8413 47.9323 43.9827 48.0811C44.1241 48.2299 44.2036 48.4317 44.2036 48.6422C44.2036 48.8526 44.1241 49.0544 43.9827 49.2033C43.8413 49.3521 43.6496 49.4357 43.4496 49.4357ZM52.0354 63.2378H48.9771C48.7772 63.2378 48.5854 63.1542 48.444 63.0054C48.3026 62.8565 48.2232 62.6547 48.2232 62.4443C48.2232 62.2338 48.3026 62.032 48.444 61.8832C48.5854 61.7344 48.7772 61.6508 48.9771 61.6508H52.0354C52.2354 61.6508 52.4272 61.7344 52.5686 61.8832C52.7099 62.032 52.7894 62.2338 52.7894 62.4443C52.7894 62.6547 52.7099 62.8565 52.5686 63.0054C52.4272 63.1542 52.2354 63.2378 52.0354 63.2378ZM52.0354 58.6404H48.9771C48.8728 58.6491 48.7679 58.635 48.669 58.5989C48.5701 58.5628 48.4793 58.5056 48.4025 58.4308C48.3256 58.3561 48.2643 58.2654 48.2223 58.1645C48.1804 58.0635 48.1587 57.9545 48.1587 57.8444C48.1587 57.7342 48.1804 57.6253 48.2223 57.5244C48.2643 57.4234 48.3256 57.3327 48.4025 57.258C48.4793 57.1832 48.5701 57.126 48.669 57.0899C48.7679 57.0539 48.8728 57.0397 48.9771 57.0484H52.0354C52.2257 57.0642 52.4033 57.155 52.5329 57.3025C52.6624 57.45 52.7344 57.6435 52.7344 57.8444C52.7344 58.0453 52.6624 58.2388 52.5329 58.3863C52.4033 58.5339 52.2257 58.6246 52.0354 58.6404ZM52.0354 54.038H48.9771C48.8728 54.0467 48.7679 54.0326 48.669 53.9965C48.5701 53.9604 48.4793 53.9032 48.4025 53.8285C48.3256 53.7537 48.2643 53.663 48.2223 53.5621C48.1804 53.4612 48.1587 53.3522 48.1587 53.2421C48.1587 53.1319 48.1804 53.0229 48.2223 52.922C48.2643 52.8211 48.3256 52.7304 48.4025 52.6556C48.4793 52.5809 48.5701 52.5237 48.669 52.4876C48.7679 52.4515 48.8728 52.4374 48.9771 52.4461H52.0354C52.2257 52.4619 52.4033 52.5526 52.5329 52.7001C52.6624 52.8476 52.7344 53.0412 52.7344 53.2421C52.7344 53.4429 52.6624 53.6364 52.5329 53.784C52.4033 53.9315 52.2257 54.0222 52.0354 54.038ZM52.0354 49.4357H48.9771C48.7772 49.4357 48.5854 49.3521 48.444 49.2033C48.3026 49.0544 48.2232 48.8526 48.2232 48.6422C48.2232 48.4317 48.3026 48.2299 48.444 48.0811C48.5854 47.9323 48.7772 47.8487 48.9771 47.8487H52.0354C52.2354 47.8487 52.4272 47.9323 52.5686 48.0811C52.7099 48.2299 52.7894 48.4317 52.7894 48.6422C52.7894 48.8526 52.7099 49.0544 52.5686 49.2033C52.4272 49.3521 52.2354 49.4357 52.0354 49.4357Z" fill="#AFE0FF"/>
<path d="M26.5559 13.951H10.5199C9.30713 13.951 8.32397 14.9858 8.32397 16.2621V16.2671C8.32397 17.5435 9.30713 18.5782 10.5199 18.5782H26.5559C27.7687 18.5782 28.7518 17.5435 28.7518 16.2671V16.2621C28.7518 14.9858 27.7687 13.951 26.5559 13.951Z" fill="#AFE0FF"/>
<path d="M27.2251 12.0217C27.2251 12.0217 32.9505 4.94454 30.7075 1.4035C28.4644 -2.13754 22.6117 5.72811 22.6117 5.72811C22.6117 5.72811 21.3536 0 18.5403 0C15.7271 0 14.4689 5.72811 14.4689 5.72811C14.4689 5.72811 8.61149 -2.13754 6.36844 1.4035C4.12538 4.94454 9.85083 12.0217 9.85083 12.0217" fill="#AFE0FF"/>
<path d="M31.8148 27.8672H33.5584C31.042 22.8433 28.1157 20.5024 28.1157 20.5024H8.96487C8.96487 20.5024 0.482733 27.2671 0.0115029 42.4727C-0.459727 57.5395 13.6772 57.6833 18.5591 57.6833C20.5544 57.7117 22.5489 57.579 24.5249 57.2866V35.5543C24.5274 33.5189 25.2958 31.5675 26.662 30.1269C28.0281 28.6862 29.8809 27.8737 31.8148 27.8672Z" fill="#AFE0FF"/>
</svg>
