<svg width="58" height="57" viewBox="0 0 58 57" fill="none" xmlns="http://www.w3.org/2000/svg">
<path d="M29.4946 4.8061e-07C23.8577 5.7564e-07 18.3472 1.67168 13.6603 4.80353C8.97341 7.93538 5.32052 12.3867 3.16358 17.5947C1.00664 22.8027 0.442539 28.5334 1.54264 34.062C2.64275 39.5906 5.35763 44.6688 9.34395 48.6544C13.3303 52.64 18.409 55.3539 23.9378 56.453C29.4666 57.5521 35.1971 56.987 40.4047 54.8291C45.6123 52.6712 50.0631 49.0174 53.1941 44.3299C56.3251 39.6424 57.9957 34.1317 57.9946 28.4947C57.9946 24.7523 57.2574 21.0466 55.8251 17.5891C54.3928 14.1316 52.2934 10.9902 49.6469 8.34411C47.0003 5.69806 43.8585 3.5992 40.4007 2.16751C36.943 0.735822 33.2371 -0.000686834 29.4946 4.8061e-07ZM26.1715 10.0634C26.929 9.32763 27.9177 8.87656 28.9699 8.78681C30.022 8.69707 31.0728 8.97426 31.9439 9.57115C32.815 10.1681 33.4527 11.0479 33.7489 12.0615C34.045 13.0751 33.9812 14.16 33.5685 15.1319C33.1557 16.1039 32.4193 16.9031 31.4843 17.3939C30.5493 17.8846 29.4733 18.0369 28.4389 17.8246C27.4045 17.6122 26.4754 17.0485 25.8093 16.229C25.1432 15.4096 24.7813 14.3849 24.7848 13.3289C24.7807 12.7211 24.9018 12.119 25.1403 11.5599C25.3789 11.0009 25.7299 10.4968 26.1715 10.0791V10.0634ZM37.2659 45.6963H21.7129V40.8189H23.0473C23.6094 40.8512 24.1732 40.8036 24.722 40.6776C24.9479 40.5923 25.1343 40.4264 25.2453 40.2119C25.3925 39.7924 25.4512 39.347 25.418 38.9036V26.8673H21.6919V22.1312C22.9714 22.0691 24.2457 21.9257 25.507 21.7021C26.6114 21.5143 27.7023 21.2538 28.7725 20.9223C29.5611 20.6445 30.3274 20.3069 31.0646 19.9123H33.4562V38.532C33.4164 39.0826 33.4677 39.6361 33.6079 40.17C33.7199 40.385 33.9057 40.5522 34.1313 40.641C34.7019 40.7857 35.2916 40.8405 35.8791 40.8032H37.2659V45.6963Z" fill="#AFE0FF"/>
</svg>
