<svg width="57" height="58" viewBox="0 0 57 58" fill="none" xmlns="http://www.w3.org/2000/svg">
<path d="M31.2498 23.1293L46.8822 6.94769C43.0755 3.42452 37.3655 1.01869 31.395 0.907959L31.2498 23.1293Z" fill="#AFE0FF"/>
<path d="M53.3185 42.8233L27.8038 29.2339V0.746704C27.6134 0.746704 27.4231 0.746704 27.2328 0.746704C11.5703 0.746704 0 13.5056 0 29.2492C0 32.9915 0.733575 36.6974 2.15879 40.1549C3.584 43.6124 5.67294 46.7536 8.30638 49.3998C10.9398 52.046 14.0662 54.1455 17.507 55.5776C20.9477 57.0098 24.6355 57.7467 28.3598 57.7467C39.344 57.7517 49.5569 51.2337 53.3185 42.8233Z" fill="#AFE0FF"/>
<path d="M45.9408 12.9421L41.8537 17.1599L37.7515 30.3114L40.1206 31.5848L45.9408 12.9421Z" fill="#AFE0FF"/>
<path d="M40.6463 18.4128L36.5591 22.6306L34.6758 28.6552L37.0449 29.9336L40.6463 18.4128Z" fill="#AFE0FF"/>
<path d="M46.9624 35.2742L49.3315 36.5472L55.0766 18.1562C54.5943 16.9697 54.0286 15.8193 53.3836 14.7136L46.9624 35.2742Z" fill="#AFE0FF"/>
<path d="M56.7396 24.3166C56.5018 22.6208 56.0958 20.9535 55.5275 19.339L50.0178 36.9244L52.387 38.1979L56.7396 24.3166Z" fill="#AFE0FF"/>
<path d="M56.9397 26.2952L53.103 38.5757L54.4954 39.3257C56.2735 35.8629 56.9998 31.7759 56.9998 27.6286C56.9798 27.1857 56.9698 26.7381 56.9397 26.2952Z" fill="#AFE0FF"/>
<path d="M47.1526 11.6935L40.8215 31.967L43.1907 33.2405L50.3081 10.4554C49.9926 10.103 49.6771 9.75575 49.3465 9.44873L47.1526 11.6935Z" fill="#AFE0FF"/>
<path d="M33.9745 28.2777L35.3519 23.8788L32.0762 27.256L33.9745 28.2777Z" fill="#AFE0FF"/>
<path d="M43.8921 33.6181L46.2612 34.8911L52.8428 13.8228C52.2539 12.8943 51.6082 12.0035 50.9094 11.1554L43.8921 33.6181Z" fill="#AFE0FF"/>
</svg>
