<svg width="46" height="45" viewBox="0 0 46 45" fill="none" xmlns="http://www.w3.org/2000/svg">
<path d="M15.6168 44.534C10.0553 45.7358 5.52275 44.6742 1.9335 40.6362C1.35985 39.921 0.859316 39.1521 0.439035 38.3408C0.164161 37.8601 0.0137082 37.3205 0.000893524 36.7694C-0.0119211 36.2184 0.113272 35.6727 0.365513 35.1801C1.64671 32.3385 3.92834 30.0446 6.79268 28.7186C7.31531 28.4994 7.88343 28.4047 8.45054 28.4422C10.5815 28.5112 12.6285 29.2736 14.2693 30.6094C14.9689 31.1435 15.6495 31.695 16.311 32.2639C18.128 33.7861 20.0635 33.8662 22.1215 32.7726C24.3878 31.5708 26.2866 29.9163 28.1077 28.1698C30.08 26.283 31.9542 24.3041 33.314 21.9286C34.6737 19.553 34.5022 17.9787 32.8117 15.8316C31.8337 14.6372 30.9218 13.3923 30.08 12.102C29.33 10.8122 28.9875 9.33285 29.0959 7.85174C29.1283 7.31815 29.2774 6.79766 29.5328 6.32551C30.841 3.85351 32.8962 1.83869 35.4168 0.556971C36.1117 0.162296 36.9069 -0.0296392 37.709 0.0037122C38.5112 0.0370636 39.287 0.294305 39.9453 0.745238C44.1675 3.40517 46.2254 7.19077 45.9804 12.1181C45.7735 15.2725 44.7839 18.3296 43.0976 21.0232C37.7855 30.0786 30.0466 37.5337 20.7209 42.5791C19.7756 43.0661 18.7974 43.489 17.7932 43.8449C16.9847 44.1574 16.1231 44.3778 15.6168 44.534Z" fill="#99D6FF"/>
</svg>
