<svg width="43" height="43" viewBox="0 0 43 43" fill="none" xmlns="http://www.w3.org/2000/svg">
<path d="M21.952 42.776C15.872 42.776 10.784 40.728 6.688 36.632C2.592 32.568 0.544 27.64 0.544 21.848C0.544 16.088 2.576 11.144 6.64 7.016C10.736 2.888 15.712 0.823999 21.568 0.823999C27.328 0.823999 32.256 2.744 36.352 6.584C40.448 10.392 42.496 14.808 42.496 19.832C42.496 23.672 41.6 26.648 39.808 28.76C38.016 30.84 35.728 31.88 32.944 31.88C29.712 31.88 27.264 30.92 25.6 29C23.488 30.92 21.12 31.88 18.496 31.88C16 31.88 13.904 31.032 12.208 29.336C10.544 27.64 9.712 25.4 9.712 22.616C9.712 19.288 10.784 16.456 12.928 14.12C15.104 11.752 17.616 10.568 20.464 10.568C23.28 10.568 25.488 11.656 27.088 13.832L27.616 11.288L33.28 12.2L31.024 25.112C30.928 25.592 30.88 26.088 30.88 26.6C30.88 27.496 31.184 28.232 31.792 28.808C32.432 29.352 33.296 29.624 34.384 29.624C36.144 29.624 37.6 28.76 38.752 27.032C39.904 25.304 40.48 22.904 40.48 19.832C40.48 15.288 38.64 11.304 34.96 7.88C31.312 4.456 26.848 2.744 21.568 2.744C16.192 2.744 11.68 4.6 8.032 8.312C4.384 12.024 2.56 16.536 2.56 21.848C2.56 27.192 4.384 31.688 8.032 35.336C11.712 39.016 16.352 40.856 21.952 40.856C26.144 40.856 30.064 39.784 33.712 37.64L34.672 39.176C30.736 41.576 26.496 42.776 21.952 42.776ZM20.176 26.936C21.712 26.936 23.04 26.28 24.16 24.968C25.312 23.624 25.888 21.976 25.888 20.024C25.888 18.68 25.472 17.592 24.64 16.76C23.808 15.928 22.736 15.512 21.424 15.512C19.856 15.512 18.496 16.168 17.344 17.48C16.224 18.792 15.664 20.392 15.664 22.28C15.664 23.752 16.08 24.904 16.912 25.736C17.744 26.536 18.832 26.936 20.176 26.936Z" fill="#99D6FF"/>
</svg>
