<svg width="51" height="70" viewBox="0 0 51 70" fill="none" xmlns="http://www.w3.org/2000/svg">
<path d="M42.4615 10.8841H49.1429L40.1217 1.10608V8.34884C40.0988 8.99688 40.3322 9.62758 40.7708 10.1028C41.2094 10.578 41.8174 10.859 42.4615 10.8841Z" fill="#99D6FF"/>
<path d="M49.8703 13.7198H42.4617C41.0719 13.6915 39.7499 13.1104 38.7851 12.1037C37.8203 11.097 37.2913 9.74688 37.3139 8.34875V0.521786C37.3132 0.34282 37.3477 0.165487 37.4154 0H4.14974C3.05008 0.00299376 1.99629 0.443738 1.21871 1.22594C0.441122 2.00813 0.00297611 3.06817 0 4.17436V65.8313C0.00446224 66.9365 0.443278 67.9951 1.2207 68.7761C1.99813 69.557 3.05105 69.997 4.14974 70H45.8728C46.971 69.997 48.0233 69.5568 48.7998 68.7757C49.5764 67.9946 50.0139 66.936 50.0169 65.8313V13.7028L49.8703 13.7198ZM41.3453 49.1622H8.71107C8.33723 49.1622 7.9787 49.0128 7.71436 48.7469C7.45002 48.481 7.30151 48.1203 7.30151 47.7443C7.30151 47.3682 7.45002 47.0076 7.71436 46.7417C7.9787 46.4758 8.33723 46.3264 8.71107 46.3264H41.3453C41.7191 46.3264 42.0776 46.4758 42.342 46.7417C42.6063 47.0076 42.7548 47.3682 42.7548 47.7443C42.7548 48.1203 42.6063 48.481 42.342 48.7469C42.0776 49.0128 41.7191 49.1622 41.3453 49.1622ZM41.3453 39.7019H8.71107C8.33723 39.7019 7.9787 39.5524 7.71436 39.2865C7.45002 39.0206 7.30151 38.66 7.30151 38.2839C7.30151 37.9079 7.45002 37.5472 7.71436 37.2813C7.9787 37.0154 8.33723 36.866 8.71107 36.866H41.3453C41.7191 36.866 42.0776 37.0154 42.342 37.2813C42.6063 37.5472 42.7548 37.9079 42.7548 38.2839C42.7548 38.66 42.6063 39.0206 42.342 39.2865C42.0776 39.5524 41.7191 39.7019 41.3453 39.7019ZM41.3453 30.406H8.71107C8.33723 30.406 7.9787 30.2565 7.71436 29.9906C7.45002 29.7247 7.30151 29.3641 7.30151 28.988C7.30151 28.612 7.45002 28.2513 7.71436 27.9854C7.9787 27.7195 8.33723 27.5701 8.71107 27.5701H41.3453C41.7191 27.5701 42.0776 27.7195 42.342 27.9854C42.6063 28.2513 42.7548 28.612 42.7548 28.988C42.7548 29.3641 42.6063 29.7247 42.342 29.9906C42.0776 30.2565 41.7191 30.406 41.3453 30.406ZM41.3453 20.764H8.71107C8.33723 20.764 7.9787 20.6147 7.71436 20.3487C7.45002 20.0828 7.30151 19.7222 7.30151 19.3461C7.30151 18.9701 7.45002 18.6094 7.71436 18.3435C7.9787 18.0776 8.33723 17.9282 8.71107 17.9282H41.3453C41.7191 17.9282 42.0776 18.0776 42.342 18.3435C42.6063 18.6094 42.7548 18.9701 42.7548 19.3461C42.7548 19.7222 42.6063 20.0828 42.342 20.3487C42.0776 20.6147 41.7191 20.764 41.3453 20.764Z" fill="#99D6FF"/>
</svg>
