<svg width="57" height="57" viewBox="0 0 57 57" fill="none" xmlns="http://www.w3.org/2000/svg">
<path d="M27.2804 17.9157C23.7477 17.7746 20.2681 16.9937 17.0053 15.6095C16.0584 19.4209 15.5431 23.3299 15.4692 27.2603H27.2852L27.2804 17.9157Z" fill="#AFE0FF"/>
<path d="M27.2805 29.7395H15.4646C15.5401 33.7143 16.065 37.6671 17.0291 41.52C20.2827 40.1406 23.753 39.3644 27.2758 39.2283L27.2805 29.7395Z" fill="#AFE0FF"/>
<path d="M27.2805 56.1302V41.7169C23.9911 41.8597 20.7546 42.6086 17.7285 43.927C19.879 50.6196 23.3576 55.3135 27.2805 56.1302Z" fill="#AFE0FF"/>
<path d="M47.8119 7.33159L47.9111 7.24995C43.9704 3.52248 39.07 1.0084 33.7793 0C37.0358 2.23887 39.7629 6.5149 41.5731 12.0881C43.8657 10.814 45.9668 9.21218 47.8119 7.33159Z" fill="#AFE0FF"/>
<path d="M39.2762 43.9174C36.2484 42.5989 33.0104 41.85 29.7195 41.7073V56.1206C33.6424 55.3135 37.1115 50.6196 39.2762 43.9174Z" fill="#AFE0FF"/>
<path d="M39.9993 15.6095C36.7351 16.9941 33.2538 17.7751 29.7195 17.9157V27.2603H41.5354C41.4638 23.3297 40.9484 19.4205 39.9993 15.6095Z" fill="#AFE0FF"/>
<path d="M29.7195 0.864746V15.4367C33.025 15.2933 36.2768 14.5362 39.314 13.2026C37.1683 6.41877 33.6707 1.68631 29.7195 0.864746Z" fill="#AFE0FF"/>
<path d="M41.5305 29.7395H29.7146V39.2283C33.2374 39.3639 36.7079 40.1401 39.9614 41.52C40.9316 37.6682 41.4582 33.7149 41.5305 29.7395Z" fill="#AFE0FF"/>
<path d="M27.2805 0.864746C23.334 1.68631 19.8365 6.43798 17.686 13.2026C20.7236 14.5352 23.9752 15.2923 27.2805 15.4367V0.864746Z" fill="#AFE0FF"/>
<path d="M47.8119 49.8078C45.9551 47.9191 43.8414 46.3108 41.5353 45.0322C39.7251 50.5429 37.0169 54.7708 33.7793 57.0001C39.0326 55.997 43.9021 53.5112 47.8308 49.8271C47.827 49.8185 47.8203 49.8117 47.8119 49.8078Z" fill="#AFE0FF"/>
<path d="M43.9693 29.7395C43.9079 34.0843 43.3319 38.4058 42.2537 42.6106C44.9394 44.0383 47.3954 45.8738 49.537 48.0539C54.0725 43.029 56.7113 36.534 56.9858 29.7202L43.9693 29.7395Z" fill="#AFE0FF"/>
<path d="M49.5372 9.08517C47.4048 11.2576 44.9601 13.0882 42.2869 14.5142C43.3436 18.68 43.9085 22.9587 43.9695 27.2603H57.0001C56.7253 20.4812 54.1098 14.0171 49.6127 9.00342C49.5896 9.03252 49.5643 9.05991 49.5372 9.08517Z" fill="#AFE0FF"/>
<path d="M7.46295 48.054C9.60711 45.8748 12.0645 44.0395 14.751 42.6106C13.6711 38.4061 13.0935 34.0845 13.0306 29.7395H0C0.278884 36.5523 2.91711 43.0458 7.44876 48.0732C7.44876 48.0732 7.45823 48.0588 7.46295 48.054Z" fill="#AFE0FF"/>
<path d="M15.4693 45.0322C13.1617 46.3107 11.0465 47.919 9.18799 49.8078C13.1165 53.4933 17.9859 55.9807 23.2395 56.9856C19.9877 54.7708 17.2606 50.5429 15.4693 45.0322Z" fill="#AFE0FF"/>
<path d="M13.0306 27.2603C13.0955 22.9587 13.6618 18.6802 14.7179 14.5142C12.0439 13.0871 9.59789 11.2567 7.46295 9.0852C7.4346 9.05637 7.41567 9.02277 7.38732 8.98914C2.89407 14.0053 0.279118 20.4679 0 27.246L13.0306 27.2603Z" fill="#AFE0FF"/>
<path d="M9.18816 7.33159C11.0352 9.20999 13.1358 10.8116 15.4269 12.0881C17.2419 6.5149 19.9643 2.23887 23.2255 0C17.9337 1.0093 13.0319 3.5232 9.08887 7.24995C9.12195 7.27877 9.1598 7.30276 9.18816 7.33159Z" fill="#AFE0FF"/>
</svg>
