<svg width="75" height="41" viewBox="0 0 75 41" fill="none" xmlns="http://www.w3.org/2000/svg">
<path d="M64.8487 14.635C63.8616 10.4815 61.4068 6.76939 57.8883 4.10938C54.3699 1.44937 49.9976 -5.04445e-07 45.4909 0C45.0902 0 44.6894 3.52027e-05 44.2887 0.0360819C44.1647 0.0360819 44.0454 0.0586375 43.9214 0.0631434C43.64 0.0631434 43.3585 0.112567 43.0818 0.144108L42.6954 0.18921C42.3758 0.234268 42.0562 0.283868 41.7413 0.337938L41.5315 0.37402C41.1689 0.446113 40.8064 0.527236 40.4534 0.617353C40.3103 0.648894 40.172 0.689332 40.0289 0.725379L39.3466 0.923609L38.903 1.06332C38.7075 1.1309 38.5119 1.19859 38.3163 1.27519L38.1779 1.32469C38.0682 1.36074 37.9538 1.4013 37.844 1.44636C33.9941 2.97162 30.7485 5.60067 28.5657 8.96218C27.3428 8.01612 25.8705 7.4019 24.3065 7.18514C22.7425 6.96839 21.1455 7.15708 19.6864 7.73143C18.2272 8.30578 16.9608 9.24403 16.0226 10.4457C15.0843 11.6474 14.5096 13.0674 14.3598 14.5538H14.0878C12.2605 14.5325 10.4466 14.8515 8.74969 15.4923C7.05281 16.1332 5.50622 17.0833 4.19815 18.2887C2.89007 19.4941 1.84616 20.9313 1.12603 22.5178C0.405902 24.1043 0.0236117 25.8091 0.00105962 27.5351C-0.0214925 29.2612 0.316145 30.9746 0.994604 32.5774C1.67306 34.1802 2.67908 35.641 3.95526 36.8766C5.23145 38.1122 6.75277 39.0981 8.43239 39.7783C10.112 40.4585 11.917 40.8197 13.7444 40.841H33.2264V28.6121C33.2262 28.5034 33.1921 28.3972 33.1285 28.3067C33.0648 28.2162 32.9745 28.1454 32.8686 28.103C32.7976 28.0753 32.7212 28.0613 32.6443 28.0623H25.4889C25.375 28.0613 25.2638 28.0293 25.1687 27.9701C25.0736 27.9109 24.9985 27.827 24.9527 27.7285C24.9069 27.63 24.8921 27.521 24.9103 27.4148C24.9284 27.3085 24.9785 27.2096 25.0548 27.1296L38.3211 13.5175L51.5874 27.1296C51.6636 27.2096 51.7138 27.3085 51.7319 27.4148C51.75 27.521 51.7352 27.63 51.6894 27.7285C51.6435 27.827 51.5686 27.9109 51.4735 27.9701C51.3783 28.0293 51.2671 28.0613 51.1532 28.0623H43.9977C43.8433 28.0623 43.6954 28.1202 43.5862 28.2233C43.4771 28.3264 43.4157 28.4663 43.4157 28.6121V40.841H58.2943C59.5993 40.9573 60.9096 41.0097 62.2203 40.9985C70.1104 40.9985 75 34.9969 75 27.5488C74.9954 24.6532 74.0067 21.8355 72.1792 19.5106C70.3516 17.1858 67.782 15.4766 64.8487 14.635Z" fill="#AFE0FF"/>
</svg>
