<svg width="58" height="64" viewBox="0 0 58 64" fill="none" xmlns="http://www.w3.org/2000/svg">
<path d="M34.7221 38.7665L28.0674 32.2125C27.9343 32.3227 27.8165 32.4129 27.7142 32.5081L13.7189 46.2025C11.057 48.8081 8.39511 51.412 5.73324 54.0142C5.48259 54.2762 5.18044 54.4859 4.84497 54.6308C4.50951 54.7758 4.14764 54.8529 3.78099 54.8575C3.41435 54.8622 3.05048 54.7944 2.71127 54.6581C2.37206 54.5218 2.06448 54.3198 1.80694 54.0643C1.48445 53.7687 1.17221 53.4681 0.870191 53.1524C0.59651 52.9012 0.378319 52.5977 0.229192 52.2607C0.0800645 51.9237 0.00317383 51.5604 0.00317383 51.1932C0.00317383 50.8259 0.0800645 50.4626 0.229192 50.1256C0.378319 49.7887 0.59651 49.4852 0.870191 49.234C4.33063 45.8333 7.79616 42.4411 11.2668 39.0572L22.9177 27.6477L23.1327 27.4022L17.3482 21.8252C22.2624 17.0199 27.0999 12.3048 31.963 7.53455L37.7423 13.2217C38.034 12.901 38.2542 12.6104 38.5511 12.3449C38.8096 12.056 39.1277 11.824 39.4845 11.6643C39.8414 11.5047 40.2287 11.4209 40.6211 11.4185C41.0134 11.4161 41.4018 11.4952 41.7606 11.6506C42.1194 11.806 42.4405 12.034 42.7026 12.3198C43.0046 12.6104 43.3066 12.9011 43.5933 13.2067C43.8456 13.4609 44.0437 13.7616 44.1763 14.0913C44.3089 14.421 44.3733 14.7733 44.3656 15.1276C44.358 15.4818 44.2786 15.8311 44.1319 16.1551C43.9853 16.4791 43.7743 16.7713 43.5114 17.0149C43.2196 17.3105 42.892 17.5711 42.5695 17.8617L49.3419 24.4609L34.7221 38.7665Z" fill="#AFE0FF"/>
<path d="M18.5256 59.1856C18.5256 58.7196 18.5256 58.3237 18.5256 57.9329C18.5074 57.5658 18.5677 57.1991 18.7026 56.8561C18.8375 56.5132 19.044 56.2015 19.309 55.9411C19.5741 55.6808 19.8917 55.4775 20.2416 55.3442C20.5914 55.2109 20.9659 55.1505 21.341 55.167C27.6306 55.167 33.9201 55.167 40.2096 55.167H49.8231C51.7734 55.167 52.8945 56.2443 52.8945 58.1734C52.8945 58.4891 52.8945 58.7998 52.8945 59.1756H54.2817C54.9649 59.1671 55.6333 59.3706 56.1911 59.7568C56.4418 59.9036 56.6499 60.1107 56.7956 60.3586C56.9412 60.6064 57.0196 60.8867 57.0232 61.1726C57.0268 61.4585 56.9555 61.7405 56.8161 61.9918C56.6767 62.243 56.4739 62.4552 56.227 62.608C55.6169 63.0405 54.8757 63.2594 54.123 63.2293H17.3994C16.6312 63.2684 15.8714 63.0569 15.2392 62.628C14.1386 61.8212 14.1181 60.4784 15.2801 59.7669C15.8769 59.4705 16.5209 59.2756 17.1844 59.1906C17.6303 59.1471 18.0794 59.1455 18.5256 59.1856Z" fill="#AFE0FF"/>
<path d="M12.255 21.5598C11.7505 21.5383 11.2635 21.3726 10.8541 21.0831C10.4447 20.7937 10.1309 20.3933 9.95141 19.9313C9.71094 19.4331 9.63933 18.8728 9.74707 18.3319C9.85481 17.7911 10.1362 17.2981 10.5503 16.9249C12.214 15.2663 13.9033 13.6328 15.5772 11.9893C19.3311 8.31476 23.085 4.64021 26.839 0.965664C27.1952 0.560315 27.6634 0.26427 28.1874 0.113158C28.7114 -0.0379539 29.2688 -0.0377086 29.7926 0.113831C30.2526 0.247609 30.6686 0.49711 30.9993 0.837429C31.3299 1.17775 31.5636 1.59698 31.6771 2.05332C31.7905 2.50966 31.7797 2.98715 31.6458 3.43813C31.5118 3.88911 31.2594 4.29783 30.9137 4.6235C29.5213 6.03152 28.088 7.39945 26.6751 8.78242C22.6584 12.7142 18.6418 16.6476 14.6251 20.5827C14.3256 20.9036 13.9587 21.1571 13.5495 21.3258C13.1403 21.4945 12.6987 21.5743 12.255 21.5598Z" fill="#AFE0FF"/>
<path d="M34.8706 43.6422C34.9567 42.8556 35.3185 42.1227 35.8944 41.5678C37.6622 39.8474 39.4248 38.122 41.1824 36.3916C44.81 32.8407 48.4411 29.2848 52.0755 25.7238C52.4983 25.2654 53.0536 24.9438 53.6676 24.8018C54.2437 24.6843 54.843 24.7513 55.3773 24.9928C55.9115 25.2343 56.3522 25.6374 56.6345 26.1428C56.9167 26.6482 57.0255 27.2291 56.9448 27.7996C56.864 28.3701 56.5981 28.9002 56.1861 29.3114C54.8347 30.6643 53.4577 31.9922 52.0909 33.32L39.8053 45.3458C38.413 46.7087 36.4422 46.6085 35.4286 45.0953C35.1929 44.6306 35.0059 44.1438 34.8706 43.6422Z" fill="#AFE0FF"/>
</svg>
