<svg width="65" height="71" viewBox="0 0 65 71" fill="none" xmlns="http://www.w3.org/2000/svg">
<path d="M47.7086 34.5616C47.9257 33.5292 48.0346 32.4772 48.0337 31.4225C48.0317 29.2615 47.5746 27.125 46.6918 25.1507C45.809 23.1764 44.5201 21.4083 42.9084 19.9604C41.2967 18.5125 39.3979 17.4171 37.3346 16.7447C35.2713 16.0724 33.0892 15.838 30.9293 16.0569C28.7694 16.2758 26.6796 16.943 24.7947 18.0155C22.9099 19.0879 21.2718 20.5418 19.9864 22.2833C18.7009 24.0248 17.7965 26.0152 17.3315 28.126C16.8666 30.2369 16.8514 32.4214 17.287 34.5384H17.2591C17.3177 34.8102 17.3906 35.0788 17.4775 35.3429C17.9988 37.3224 18.9114 39.1784 20.1619 40.8026C21.138 42.282 22.2414 43.6741 23.4596 44.9633C28.1598 52.619 26.2974 59.3779 26.2974 59.3779L32.1077 59.5119V59.5489L38.6796 59.3963C38.6796 59.3963 36.8218 52.6375 41.5174 44.9818C42.7027 43.7342 43.7794 42.3887 44.7361 40.9598C46.157 39.1555 47.1551 37.0579 47.6575 34.8205C47.6947 34.6494 47.7086 34.5616 47.7086 34.5616Z" fill="#AFE0FF"/>
<path d="M38.3961 65.2767H26.3203C26.0124 65.2767 25.7171 65.1549 25.4993 64.9381C25.2815 64.7214 25.1592 64.4275 25.1592 64.121C25.1592 63.8144 25.2815 63.5204 25.4993 63.3037C25.7171 63.087 26.0124 62.9652 26.3203 62.9652H38.3961C38.704 62.9652 38.9994 63.087 39.2171 63.3037C39.4349 63.5204 39.5572 63.8144 39.5572 64.121C39.5572 64.4275 39.4349 64.7214 39.2171 64.9381C38.9994 65.1549 38.704 65.2767 38.3961 65.2767Z" fill="#AFE0FF"/>
<path d="M35.7812 71H28.6147C28.3068 71 28.0114 70.8782 27.7937 70.6615C27.5759 70.4447 27.4536 70.1508 27.4536 69.8442C27.4536 69.5377 27.5759 69.2437 27.7937 69.027C28.0114 68.8102 28.3068 68.6885 28.6147 68.6885H35.7812C36.0892 68.6885 36.3845 68.8102 36.6023 69.027C36.82 69.2437 36.9423 69.5377 36.9423 69.8442C36.9423 70.1508 36.82 70.4447 36.6023 70.6615C36.3845 70.8782 36.0892 71 35.7812 71Z" fill="#AFE0FF"/>
<path d="M8.32759 32.4719H1.16113C0.853179 32.4719 0.557815 32.3502 0.340061 32.1334C0.122307 31.9167 0 31.6227 0 31.3162C0 31.0096 0.122307 30.7157 0.340061 30.499C0.557815 30.2823 0.853179 30.1604 1.16113 30.1604H8.32759C8.63554 30.1604 8.9309 30.2823 9.14865 30.499C9.36641 30.7157 9.48872 31.0096 9.48872 31.3162C9.48872 31.6227 9.36641 31.9167 9.14865 32.1334C8.9309 32.3502 8.63554 32.4719 8.32759 32.4719Z" fill="#AFE0FF"/>
<path d="M14.189 15.2743C14.0364 15.2748 13.8852 15.2453 13.7441 15.1874C13.603 15.1295 13.4748 15.0443 13.3669 14.9368L8.29976 9.89319C8.19089 9.78452 8.10457 9.65549 8.04576 9.51362C7.98696 9.37175 7.95682 9.2198 7.95703 9.06633C7.95725 8.91286 7.98781 8.76097 8.04701 8.61927C8.10621 8.47756 8.19291 8.34886 8.30208 8.24049C8.41126 8.13212 8.54078 8.0462 8.68331 7.98767C8.82583 7.92914 8.97855 7.89908 9.13273 7.89929C9.28692 7.89951 9.43957 7.92998 9.58193 7.98891C9.7243 8.04784 9.8536 8.13407 9.96247 8.24275L15.0297 13.291C15.1376 13.398 15.2233 13.5252 15.2818 13.6652C15.3403 13.8052 15.3704 13.9554 15.3704 14.1071C15.3704 14.2587 15.3403 14.4088 15.2818 14.5488C15.2233 14.6888 15.1376 14.816 15.0297 14.923C14.9214 15.0361 14.7909 15.1257 14.6462 15.1862C14.5016 15.2466 14.3459 15.2766 14.189 15.2743Z" fill="#AFE0FF"/>
<path d="M52.5572 15.2745C52.3282 15.274 52.1045 15.2061 51.9142 15.0793C51.7239 14.9526 51.5754 14.7727 51.4876 14.5622C51.3997 14.3517 51.3763 14.1201 51.4204 13.8964C51.4644 13.6727 51.5739 13.4669 51.7352 13.3051L56.8023 8.25678C57.0204 8.03977 57.3161 7.91785 57.6244 7.91785C57.9328 7.91785 58.2285 8.03977 58.4465 8.25678C58.6645 8.4738 58.787 8.76815 58.787 9.07506C58.787 9.38198 58.6645 9.67633 58.4465 9.89335L53.3747 14.937C53.2675 15.0441 53.1402 15.1291 52.9999 15.187C52.8596 15.2449 52.7091 15.2746 52.5572 15.2745Z" fill="#AFE0FF"/>
<path d="M63.8389 32.4719H56.6724C56.3644 32.4719 56.0691 32.3502 55.8513 32.1334C55.6336 31.9167 55.5112 31.6227 55.5112 31.3162C55.5112 31.0096 55.6336 30.7157 55.8513 30.499C56.0691 30.2823 56.3644 30.1604 56.6724 30.1604H63.8389C64.1468 30.1604 64.4422 30.2823 64.6599 30.499C64.8777 30.7157 65 31.0096 65 31.3162C65 31.6227 64.8777 31.9167 64.6599 32.1334C64.4422 32.3502 64.1468 32.4719 63.8389 32.4719Z" fill="#AFE0FF"/>
<path d="M32.5024 9.44488C32.1945 9.44488 31.8991 9.32302 31.6814 9.10628C31.4636 8.88953 31.3413 8.59565 31.3413 8.28913V1.15575C31.3413 0.849227 31.4636 0.555344 31.6814 0.338599C31.8991 0.121854 32.1945 0 32.5024 0C32.8104 0 33.1057 0.121854 33.3234 0.338599C33.5412 0.555344 33.6636 0.849227 33.6636 1.15575V8.28913C33.6636 8.59565 33.5412 8.88953 33.3234 9.10628C33.1057 9.32302 32.8104 9.44488 32.5024 9.44488Z" fill="#AFE0FF"/>
</svg>
