<svg width="51" height="71" viewBox="0 0 51 71" fill="none" xmlns="http://www.w3.org/2000/svg">
<path d="M43.0334 10.9742H49.8043L40.6544 1.11515V8.41792C40.6312 9.07228 40.8688 9.70905 41.3148 10.1884C41.7609 10.6677 42.379 10.9503 43.0334 10.9742Z" fill="#99D6FF"/>
<path d="M22.7091 46.207C22.4824 45.9935 22.2286 45.8109 21.9542 45.6637C21.7295 46.4817 21.5651 47.315 21.4624 48.1571H23.7499C23.6101 47.416 23.2469 46.7355 22.7091 46.207Z" fill="#99D6FF"/>
<path d="M23.904 55.3111V51.005H21.5479C21.9702 52.6111 22.7791 54.0894 23.904 55.3111Z" fill="#99D6FF"/>
<path d="M26.249 39.8135C25.8665 39.168 25.5449 38.4884 25.2882 37.7834C25.0291 38.5198 24.7255 39.2398 24.379 39.9393C24.3621 39.9748 24.343 40.0092 24.3218 40.0422C23.7806 40.9735 23.3029 41.9402 22.8921 42.9359C23.5364 43.221 24.131 43.6071 24.6535 44.0796C24.9051 44.3215 25.1365 44.5835 25.3454 44.8631C25.9756 44.0212 26.8101 43.3539 27.7701 42.9245C27.3302 41.856 26.8221 40.8169 26.249 39.8135Z" fill="#99D6FF"/>
<path d="M14.6517 41.5291H13.4336V48.1456H18.5804C18.6857 47.0872 18.8769 46.0391 19.1523 45.0118C19.0647 45.0175 18.9768 45.0175 18.8892 45.0118C17.9333 44.8705 17.0339 44.4717 16.2874 43.8581C15.5409 43.2446 14.9755 42.4395 14.6517 41.5291Z" fill="#99D6FF"/>
<path d="M17.1279 35.3357C16.9963 34.2492 16.699 32.0876 16.0413 27.9358C15.5209 24.6132 14.4172 22.6689 13.4336 21.548V38.6698H14.5316C14.6644 37.9463 14.9698 37.2655 15.4217 36.6851C15.8737 36.1047 16.4589 35.6418 17.1279 35.3357Z" fill="#99D6FF"/>
<path d="M27.9874 46.207C27.4475 46.7348 27.0823 47.4154 26.9409 48.1571H29.2284C29.1158 47.3158 28.9399 46.4842 28.7023 45.6694C28.4427 45.8184 28.2026 45.999 27.9874 46.207Z" fill="#99D6FF"/>
<path d="M50.5246 13.8335H43.0331C41.6225 13.8064 40.2802 13.2212 39.3004 12.206C38.3206 11.1908 37.7833 9.82861 37.8062 8.41792V0.526109C37.8084 0.345948 37.8433 0.167688 37.9092 0H4.20324C3.08887 0.0045259 2.02153 0.449602 1.23409 1.23812C0.446642 2.02663 0.00301079 3.09458 0 4.20894V66.3768C0.00301855 67.4906 0.44683 68.558 1.23444 69.3456C2.02204 70.1332 3.0894 70.577 4.20324 70.58H46.5215C47.6354 70.577 48.7027 70.1332 49.4903 69.3456C50.2779 68.558 50.7217 67.4906 50.7248 66.3768V13.8163C50.6585 13.8269 50.5916 13.8327 50.5246 13.8335ZM40.1052 49.6153C40.1052 49.9945 39.9545 50.3581 39.6864 50.6263C39.4183 50.8944 39.0547 51.045 38.6755 51.045H32.0818C31.2412 55.9173 26.4146 59.623 26.1916 59.7774H26.1573L26.0772 59.8289L25.9342 59.9033L25.8427 59.9433L25.6769 59.9947H25.5911C25.5055 60.0031 25.4194 60.0031 25.3338 59.9947C25.2481 60.0004 25.1621 60.0004 25.0764 59.9947H24.9907C24.9339 59.9828 24.8784 59.9656 24.8248 59.9433L24.739 59.9089L24.5846 59.8232L24.5217 59.7889C24.293 59.6287 19.455 56.1232 18.6486 51.0336H12.0035C11.6244 51.0336 11.2607 50.8829 10.9926 50.6148C10.7245 50.3467 10.5739 49.9831 10.5739 49.6039V18.7802C10.5734 18.5582 10.6249 18.3391 10.7242 18.1405C10.8235 17.9419 10.9678 17.7693 11.1457 17.6364C11.325 17.5046 11.5324 17.4158 11.7516 17.3771C11.9708 17.3384 12.1959 17.3509 12.4096 17.4134C12.6211 17.4763 17.5278 19.049 18.8602 27.5126C19.7695 33.2313 20.0897 35.8505 20.0897 36.3709C20.0906 36.7229 19.9615 37.0628 19.7272 37.3256C19.493 37.5883 19.17 37.7554 18.8202 37.7948C18.4714 37.8463 17.2647 38.1551 17.2647 39.9164C17.2581 40.4664 17.4498 41.0003 17.8048 41.4204C18.1598 41.8405 18.6543 42.1187 19.1976 42.2039C19.4973 42.1988 19.7971 42.2103 20.0955 42.2382C20.5875 40.9941 21.1744 39.7896 21.8511 38.6354C23.1266 35.9024 23.8236 32.9353 23.8984 29.9202V14.697C23.8984 14.3179 24.049 13.9542 24.3171 13.6861C24.5853 13.418 24.9489 13.2674 25.3281 13.2674C25.7072 13.2674 26.0709 13.418 26.339 13.6861C26.6071 13.9542 26.7577 14.3179 26.7577 14.697V29.9202C26.7577 35.2386 28.6621 38.3266 28.6849 38.361C29.3976 39.6095 30.0206 40.9071 30.5492 42.244C30.857 42.212 31.1663 42.1986 31.4757 42.2039C32.0211 42.1212 32.5183 41.8442 32.8756 41.4238C33.2329 41.0034 33.4262 40.4681 33.42 39.9164C33.42 38.1551 32.2134 37.8463 31.8416 37.7891C31.4984 37.7402 31.1837 37.5705 30.9542 37.3106C30.7247 37.0507 30.5953 36.7176 30.5893 36.3709C30.5893 35.8505 30.9152 33.2485 31.8245 27.5126C33.1569 19.049 38.0636 17.4763 38.2752 17.4134C38.4889 17.3491 38.7148 17.3358 38.9347 17.3745C39.1546 17.4131 39.3623 17.5028 39.5413 17.6362C39.7203 17.7696 39.8656 17.9431 39.9655 18.1427C40.0654 18.3424 40.1171 18.5626 40.1166 18.7859L40.1052 49.6153Z" fill="#99D6FF"/>
<path d="M26.7632 55.254C27.8734 54.0418 28.6929 52.5926 29.1593 51.0164H26.7632V55.254Z" fill="#99D6FF"/>
<path d="M33.5688 35.3357C34.2378 35.6418 34.823 36.1047 35.275 36.6851C35.7269 37.2655 36.0323 37.9463 36.1651 38.6698H37.2631V21.5137C36.2852 22.6574 35.1758 24.5846 34.6554 27.9072C33.9977 32.0761 33.7004 34.2378 33.5688 35.3357Z" fill="#99D6FF"/>
<path d="M31.7963 45.0118C31.7031 45.0202 31.6093 45.0202 31.5161 45.0118C31.8045 46.0381 32.0091 47.0862 32.128 48.1456H37.2748V41.5177H36.0568C35.7328 42.4333 35.1647 43.2428 34.4137 43.8587C33.6627 44.4746 32.7576 44.8734 31.7963 45.0118Z" fill="#99D6FF"/>
</svg>
