<svg width="51" height="70" viewBox="0 0 51 70" fill="none" xmlns="http://www.w3.org/2000/svg">
<path d="M42.4618 10.884H49.1375L40.1163 1.10034V8.3431C40.0934 8.99264 40.3274 9.62483 40.7671 10.1011C41.2067 10.5774 41.8162 10.8589 42.4618 10.884Z" fill="#99D6FF"/>
<path d="M15.3025 35.2495H13.6899V38.1591H15.3476C15.7888 38.1847 16.2229 38.0385 16.5598 37.7507C16.705 37.6164 16.8194 37.452 16.8954 37.2689C16.9713 37.0858 17.0068 36.8884 16.9996 36.6901C17.0123 36.4899 16.9787 36.2893 16.9014 36.1043C16.8241 35.9193 16.7053 35.7549 16.5542 35.6239C16.194 35.3542 15.7506 35.2216 15.3025 35.2495Z" fill="#99D6FF"/>
<path d="M24.3685 35.2495H22.7334V40.9893H24.3685C24.75 41.0071 25.1311 40.9458 25.488 40.8092C25.8449 40.6726 26.1701 40.4637 26.4434 40.1953C26.7061 39.9201 26.9109 39.5944 27.0456 39.2377C27.1803 38.881 27.242 38.5007 27.2271 38.1194C27.2457 37.7371 27.1845 37.3551 27.0473 36.998C26.9102 36.641 26.7001 36.3168 26.4308 36.0464C26.1615 35.776 25.8388 35.5654 25.4836 35.4281C25.1284 35.2909 24.7485 35.23 24.3685 35.2495Z" fill="#99D6FF"/>
<path d="M49.8647 13.7199H42.4617C41.0699 13.693 39.7456 13.1118 38.7794 12.1037C37.8132 11.0957 37.2841 9.74317 37.3083 8.3431V0.52182C37.3092 0.343021 37.3437 0.165977 37.4098 0H4.1441C3.04593 0.00299374 1.99358 0.443209 1.21706 1.22434C0.440527 2.00548 0.00297609 3.06406 0 4.16875V65.8257C0.00296844 66.9309 0.440343 67.99 1.21671 68.7721C1.99308 69.5541 3.04541 69.9955 4.1441 70H45.8671C46.9658 69.9955 48.0182 69.5541 48.7945 68.7721C49.5709 67.99 50.0083 66.9309 50.0112 65.8257V13.7028C49.9627 13.7112 49.9138 13.7169 49.8647 13.7199ZM18.0198 39.146C17.2346 39.7525 16.2632 40.0636 15.274 40.0252H13.6897V42.861H11.6091V33.3552H15.477C16.4462 33.3029 17.398 33.6302 18.1326 34.2684C18.4562 34.577 18.7102 34.9519 18.8775 35.3678C19.0448 35.7836 19.1215 36.2307 19.1024 36.6788C19.1267 37.1467 19.0415 37.6137 18.8534 38.0422C18.6654 38.4708 18.3798 38.8489 18.0198 39.146ZM27.9601 41.5225C27.4761 41.9788 26.907 42.334 26.2857 42.5677C25.6643 42.8013 25.0032 42.9087 24.3403 42.8837H20.6473V33.3552H24.3685C25.0319 33.329 25.6938 33.4353 26.3161 33.668C26.9384 33.9006 27.5086 34.2551 27.9939 34.7108C28.4405 35.1563 28.7951 35.6864 29.037 36.2705C29.2789 36.8546 29.4035 37.4811 29.4035 38.1138C29.4035 38.7465 29.2789 39.373 29.037 39.9571C28.7951 40.5412 28.4405 41.0713 27.9939 41.5168L27.9601 41.5225ZM38.4416 35.2836H33.3108V37.3141H37.8214V39.2197H33.3108V42.9063H31.2302V33.3552H38.4641L38.4416 35.2836Z" fill="#99D6FF"/>
</svg>
