<svg width="69" height="49" viewBox="0 0 69 49" fill="none" xmlns="http://www.w3.org/2000/svg">
<path d="M27.8745 11.9183C27.9543 12.0708 27.9967 12.2379 27.9988 12.4075V26.4554C27.9977 26.6353 27.9501 26.8122 27.8601 26.9714L49.6108 37.4428V1.45581L27.8745 11.9183Z" fill="#AFE0FF"/>
<path d="M0 19.427C0.00126611 20.9898 0.669017 22.4883 1.8566 23.5934C3.04418 24.6984 4.65451 25.3198 6.334 25.321H25.6037V13.5552H6.34836C4.67051 13.5528 3.06013 14.1696 1.87014 15.2702C0.680139 16.3709 0.00759014 17.8657 0 19.427Z" fill="#AFE0FF"/>
<path d="M61.1171 38.9107C60.8926 38.9105 60.6725 38.8519 60.4819 38.7415C60.2912 38.6311 60.1375 38.4734 60.0381 38.286C59.9387 38.0987 59.8975 37.8893 59.9192 37.6813C59.9409 37.4734 60.0247 37.2751 60.161 37.1091C64.3281 32.0343 66.5856 25.8249 66.5856 19.4382C66.5856 13.0515 64.3281 6.84202 60.161 1.76716C59.9815 1.53035 59.9075 1.23802 59.9546 0.951557C60.0017 0.66509 60.1661 0.406737 60.4135 0.230658C60.6608 0.0545787 60.9718 -0.0255285 61.2813 0.00715511C61.5907 0.0398388 61.8745 0.182755 62.0732 0.405941C66.5597 5.87233 68.9902 12.5599 68.9902 19.4382C68.9902 26.3165 66.5597 33.004 62.0732 38.4703C61.9606 38.6069 61.8159 38.7176 61.6501 38.794C61.4844 38.8703 61.3021 38.9102 61.1171 38.9107Z" fill="#AFE0FF"/>
<path d="M55.0031 30.9571C54.7738 30.9582 54.549 30.8981 54.3553 30.784C54.1616 30.6699 54.007 30.5065 53.9099 30.3132C53.8129 30.12 53.7774 29.9048 53.8076 29.6933C53.8378 29.4819 53.9325 29.2829 54.0805 29.1199C56.5171 26.4049 57.8518 22.9799 57.8518 19.4426C57.8518 15.9053 56.5171 12.4803 54.0805 9.76523C53.8757 9.53695 53.7768 9.24231 53.8055 8.94616C53.8342 8.65001 53.9881 8.37659 54.2335 8.18606C54.4788 7.99552 54.7954 7.9035 55.1137 7.93019C55.4319 7.95689 55.7257 8.10015 55.9305 8.32843C58.7307 11.4484 60.2647 15.3843 60.2647 19.4493C60.2647 23.5142 58.7307 27.4501 55.9305 30.5701C55.8157 30.6938 55.6732 30.7926 55.513 30.8595C55.3528 30.9264 55.1787 30.9597 55.0031 30.9571Z" fill="#AFE0FF"/>
<path d="M6.96021 27.5674V42.4693C6.96021 44.0384 7.63007 45.5432 8.82241 46.6527C10.0147 47.7623 11.6319 48.3856 13.3181 48.3856C15.0044 48.3856 16.6215 47.7623 17.8138 46.6527C19.0061 45.5432 19.676 44.0384 19.676 42.4693V27.5674H6.96021Z" fill="#AFE0FF"/>
</svg>
