<svg width="49" height="72" viewBox="0 0 49 72" fill="none" xmlns="http://www.w3.org/2000/svg">
<path d="M40.3978 11.5259C39.6712 13.2262 38.4357 14.6807 36.8482 15.705C35.2606 16.7292 33.3925 17.2771 31.4807 17.2791H17.5636C15.6517 17.2771 13.7836 16.7292 12.196 15.705C10.6085 14.6807 9.37307 13.2262 8.64643 11.5259H0V71.0501H49V11.5259H40.3978ZM15.5359 58.8955L10.0773 64.1441C9.8175 64.3926 9.46592 64.5321 9.09944 64.5321C8.73296 64.5321 8.38137 64.3926 8.12152 64.1441L5.07732 61.2117C4.94559 61.089 4.84064 60.9423 4.7685 60.7802C4.69636 60.6181 4.65848 60.4438 4.65715 60.2675C4.65583 60.0911 4.69106 59.9163 4.76075 59.7532C4.83043 59.59 4.93322 59.4419 5.06309 59.3174C5.19295 59.1929 5.34727 59.0945 5.51711 59.028C5.68695 58.9614 5.86888 58.928 6.05226 58.9298C6.23565 58.9316 6.41685 58.9685 6.58526 59.0383C6.75367 59.1081 6.90591 59.2095 7.03314 59.3365L9.09944 61.3233L13.5801 57.015C13.8395 56.7657 14.1912 56.6256 14.558 56.6256C14.9248 56.6256 15.2766 56.7657 15.5359 57.015C15.7953 57.2644 15.941 57.6026 15.941 57.9553C15.941 58.3079 15.7953 58.6462 15.5359 58.8955ZM15.5359 42.2522L10.0773 47.4954C9.8175 47.7439 9.46592 47.8834 9.09944 47.8834C8.73296 47.8834 8.38137 47.7439 8.12152 47.4954L5.07732 44.5683C4.81796 44.3189 4.67226 43.9807 4.67226 43.628C4.67226 43.2754 4.81796 42.9371 5.07732 42.6877C5.33667 42.4384 5.68845 42.2983 6.05523 42.2983C6.42202 42.2983 6.77379 42.4384 7.03314 42.6877L9.09944 44.6799L13.5801 40.3716C13.8395 40.1222 14.1912 39.9821 14.558 39.9821C14.9248 39.9821 15.2766 40.1222 15.5359 40.3716C15.7953 40.621 15.941 40.9592 15.941 41.3119C15.941 41.6646 15.7953 42.0028 15.5359 42.2522ZM15.5359 25.6035L10.0773 30.852C9.8175 31.1005 9.46592 31.24 9.09944 31.24C8.73296 31.24 8.38137 31.1005 8.12152 30.852L5.07732 27.9249C4.81796 27.6756 4.67226 27.3373 4.67226 26.9847C4.67226 26.632 4.81796 26.2937 5.07732 26.0444C5.33667 25.795 5.68845 25.6549 6.05523 25.6549C6.42202 25.6549 6.77379 25.795 7.03314 26.0444L9.09944 28.0365L13.5801 23.7282C13.8402 23.4859 14.189 23.3516 14.5511 23.3541C14.9133 23.3566 15.26 23.4958 15.5164 23.7417C15.7729 23.9876 15.9186 24.3205 15.9223 24.6688C15.9259 25.017 15.7872 25.3527 15.5359 25.6035ZM44.1105 64.0326H20.3039C19.9376 64.0326 19.5862 63.8926 19.3272 63.6435C19.0682 63.3945 18.9227 63.0567 18.9227 62.7045C18.9227 62.3523 19.0682 62.0144 19.3272 61.7654C19.5862 61.5163 19.9376 61.3764 20.3039 61.3764H44.1105C44.4768 61.3764 44.8282 61.5163 45.0872 61.7654C45.3462 62.0144 45.4917 62.3523 45.4917 62.7045C45.4917 63.0567 45.3462 63.3945 45.0872 63.6435C44.8282 63.8926 44.4768 64.0326 44.1105 64.0326ZM44.1105 59.3843H20.3039C19.9376 59.3843 19.5862 59.2443 19.3272 58.9953C19.0682 58.7462 18.9227 58.4085 18.9227 58.0562C18.9227 57.704 19.0682 57.3662 19.3272 57.1171C19.5862 56.868 19.9376 56.7282 20.3039 56.7282H44.1105C44.4768 56.7282 44.8282 56.868 45.0872 57.1171C45.3462 57.3662 45.4917 57.704 45.4917 58.0562C45.4917 58.4085 45.3462 58.7462 45.0872 58.9953C44.8282 59.2443 44.4768 59.3843 44.1105 59.3843ZM44.1105 47.3892H20.3039C19.9376 47.3892 19.5862 47.2492 19.3272 47.0002C19.0682 46.7511 18.9227 46.4133 18.9227 46.0611C18.9227 45.7089 19.0682 45.371 19.3272 45.122C19.5862 44.8729 19.9376 44.733 20.3039 44.733H44.1105C44.4768 44.733 44.8282 44.8729 45.0872 45.122C45.3462 45.371 45.4917 45.7089 45.4917 46.0611C45.4917 46.4133 45.3462 46.7511 45.0872 47.0002C44.8282 47.2492 44.4768 47.3892 44.1105 47.3892ZM44.1105 42.7409H20.3039C19.9376 42.7409 19.5862 42.601 19.3272 42.3519C19.0682 42.1028 18.9227 41.7651 18.9227 41.4129C18.9227 41.0606 19.0682 40.7228 19.3272 40.4737C19.5862 40.2247 19.9376 40.0848 20.3039 40.0848H44.1105C44.4768 40.0848 44.8282 40.2247 45.0872 40.4737C45.3462 40.7228 45.4917 41.0606 45.4917 41.4129C45.4917 41.7651 45.3462 42.1028 45.0872 42.3519C44.8282 42.601 44.4768 42.7409 44.1105 42.7409ZM44.1105 30.7404H20.3039C19.9376 30.7404 19.5862 30.6005 19.3272 30.3515C19.0682 30.1024 18.9227 29.7646 18.9227 29.4123C18.9227 29.0601 19.0682 28.7224 19.3272 28.4733C19.5862 28.2242 19.9376 28.0843 20.3039 28.0843H44.1105C44.4768 28.0843 44.8282 28.2242 45.0872 28.4733C45.3462 28.7224 45.4917 29.0601 45.4917 29.4123C45.4917 29.7646 45.3462 30.1024 45.0872 30.3515C44.8282 30.6005 44.4768 30.7404 44.1105 30.7404ZM44.1105 26.0975H20.3039C19.9376 26.0975 19.5862 25.9576 19.3272 25.7085C19.0682 25.4595 18.9227 25.1216 18.9227 24.7694C18.9227 24.4172 19.0682 24.0794 19.3272 23.8304C19.5862 23.5813 19.9376 23.4413 20.3039 23.4413H44.1105C44.4768 23.4413 44.8282 23.5813 45.0872 23.8304C45.3462 24.0794 45.4917 24.4172 45.4917 24.7694C45.4917 25.1216 45.3462 25.4595 45.0872 25.7085C44.8282 25.9576 44.4768 26.0975 44.1105 26.0975Z" fill="#AFE0FF"/>
<path d="M17.5635 14.623H31.4917C33.0805 14.6204 34.6197 14.0903 35.8489 13.1223C37.0781 12.1544 37.9218 10.8079 38.2376 9.31071H29.6132V4.7262C29.5698 3.45859 29.0155 2.25687 28.0675 1.37496C27.1196 0.49304 25.8522 0 24.5332 0C23.2141 0 21.9467 0.49304 20.9987 1.37496C20.0508 2.25687 19.4965 3.45859 19.453 4.7262V9.31071H10.8342C11.1484 10.8057 11.9896 12.1507 13.2155 13.1185C14.4415 14.0863 15.9773 14.6177 17.5635 14.623ZM22.2044 4.75276C22.2334 4.18054 22.4904 3.641 22.9218 3.2459C23.3533 2.8508 23.9263 2.63043 24.5221 2.63043C25.1179 2.63043 25.6909 2.8508 26.1224 3.2459C26.5538 3.641 26.8107 4.18054 26.8398 4.75276V9.33726H22.2044V4.75276Z" fill="#AFE0FF"/>
</svg>
