<svg width="76" height="60" viewBox="0 0 76 60" fill="none" xmlns="http://www.w3.org/2000/svg">
<path d="M75.6017 32.1184C74.9137 30.9539 73.5135 30.366 71.4434 30.366H69.4639V14.1849C69.4607 12.3156 68.6508 10.5237 67.2116 9.2024C65.7725 7.8811 63.8217 7.13832 61.7873 7.13686H29.6262C27.9049 7.13979 26.2551 7.76929 25.038 8.88763C23.8209 10.006 23.1356 11.522 23.1324 13.1036V30.366H20.4831V3.92056C20.4815 2.88026 20.0307 1.88313 19.2295 1.14805C18.4284 0.412967 17.3424 -1.03767e-06 16.2102 0H3.62106C2.66069 0 1.73964 0.350521 1.06056 0.974488C0.381482 1.59845 0 2.44475 0 3.32718V4.5417C0 5.42412 0.381482 6.27028 1.06056 6.89425C1.73964 7.51822 2.66069 7.86887 3.62106 7.86887H11.2252C12.1856 7.86887 13.1066 7.51822 13.7857 6.89425C14.4648 6.27028 14.8463 5.42412 14.8463 4.5417V2.7671H16.2042C16.536 2.76709 16.8544 2.88787 17.0897 3.10298C17.3249 3.31809 17.4579 3.61006 17.4595 3.91501V38.1128C17.4595 38.1571 17.4595 38.196 17.4595 38.2403C17.4595 38.2847 17.4595 38.2792 17.4595 38.3014C17.4595 38.3236 17.4595 38.429 17.4595 38.4955C17.5688 40.2909 18.4209 41.9799 19.8413 43.217C21.2616 44.4541 23.1428 45.1456 25.0999 45.1499L28.9081 45.1775C29.0304 45.2062 29.1561 45.2211 29.2823 45.2219C29.4021 45.2203 29.5214 45.2072 29.6383 45.183L64.4186 45.416C68.0397 45.416 72.7228 39.5601 75.1852 36.0555C75.7102 35.3291 76.4647 33.5713 75.6017 32.1184ZM38.4919 15.7265H54.0986V17.2293C54.0986 17.5808 53.9466 17.9178 53.6761 18.1664C53.4056 18.4149 53.0388 18.5545 52.6562 18.5545H39.9402C39.5571 18.5545 39.1896 18.4152 38.9181 18.1668C38.6467 17.9184 38.4935 17.5813 38.4919 17.2293V15.7265ZM66.4464 30.366H26.15V18.9317C26.1516 18.0821 26.5197 17.2677 27.1736 16.6669C27.8274 16.0661 28.7136 15.728 29.6383 15.7265H35.4743V17.2293C35.4759 18.3166 35.9471 19.3589 36.7845 20.1273C37.6218 20.8956 38.7568 21.3272 39.9402 21.3272H52.6562C53.8386 21.3257 54.9721 20.8936 55.8082 20.1254C56.6442 19.3572 57.1145 18.3157 57.1161 17.2293V15.7432H61.7873C63.0219 15.7432 64.206 16.1934 65.0796 16.995C65.9532 17.7967 66.4448 18.8841 66.4464 20.0186V30.366Z" fill="#AFE0FF"/>
<path d="M62.2398 48.9649C60.9845 48.9645 59.7641 49.3448 58.7679 50.0466C57.7717 50.7484 57.0553 51.7326 56.7299 52.8466C56.6616 52.8408 56.5929 52.8408 56.5246 52.8466H36.0476C35.9793 52.8408 35.9106 52.8408 35.8423 52.8466C35.4816 51.6172 34.647 50.55 33.4939 49.8438C32.3407 49.1376 30.9477 48.8404 29.5738 49.0075C28.2 49.1747 26.9391 49.7948 26.0257 50.7525C25.1124 51.7102 24.6089 52.9402 24.6089 54.2136C24.6089 55.4869 25.1124 56.7168 26.0257 57.6745C26.9391 58.6322 28.2 59.2523 29.5738 59.4195C30.9477 59.5866 32.3407 59.2894 33.4939 58.5832C34.647 57.877 35.4816 56.8098 35.8423 55.5804C35.9087 55.5804 35.9752 55.5804 36.0476 55.5804H56.5246C56.5971 55.5804 56.6635 55.5804 56.7299 55.5804C57.009 56.5245 57.5699 57.3782 58.3492 58.0448C59.1285 58.7114 60.0951 59.1645 61.1399 59.3528C62.1848 59.5412 63.2661 59.4575 64.2618 59.1109C65.2575 58.7644 66.1278 58.1688 66.7746 57.3917C67.4213 56.6145 67.8187 55.6866 67.9218 54.7129C68.0248 53.7391 67.8294 52.7584 67.3577 51.8813C66.8861 51.0042 66.1569 50.2658 65.2525 49.7494C64.3482 49.2331 63.3046 48.9594 62.2398 48.9594V48.9649Z" fill="#AFE0FF"/>
</svg>
